<svg width="316" height="167" viewBox="0 0 316 167" fill="none" xmlns="http://www.w3.org/2000/svg">
    <g opacity="0.1">
        <mask id="mask0_598_2683" style="mask-type:alpha" maskUnits="userSpaceOnUse" x="245" y="69"
            width="71" height="50">
            <path
                d="M245.339 118.958V97.1825H250.753V91.7385H261.58V86.2946H266.994V80.8506H256.167V86.2946H245.339V75.4066H250.753V69.9626H272.408V75.4066H277.822V91.7385H272.408V97.1825H261.58V102.626H256.167V108.07H277.822V118.958H245.339Z"
                fill="#2F211F" />
            <path
                d="M288.649 118.958V113.514H283.235V102.626H294.063V108.07H304.89V97.1825H283.235V69.9626H315.718V80.8506H294.063V86.2946H310.304V91.7385H315.718V113.514H310.304V118.958H288.649Z"
                fill="#2F211F" />
        </mask>
        <g mask="url(#mask0_598_2683)">
            <path
                d="M276.933 77.585C254.527 77.585 247.974 77.6023 246.7 77.6816C242.102 77.9686 239.241 78.5122 236.123 79.6775C233.721 80.5732 231.827 81.6114 229.957 83.0668C226.552 85.721 224.488 88.9863 223.741 92.8677C223.377 94.7521 223.272 95.1363 223.25 104.761C223.242 107.97 223.25 112.192 223.25 117.855C223.25 134.665 223.275 139.581 223.382 140.535C223.754 143.895 224.455 146.009 225.941 148.321C228.781 152.746 234.205 156.069 240.594 157.308C242.807 157.736 245.25 157.971 248.387 158.083C249.716 158.126 263.263 158.157 276.818 158.157C290.373 158.157 303.928 158.145 305.224 158.095C308.856 157.967 310.966 157.755 313.298 157.302C319.729 156.056 325.053 152.783 327.951 148.296C329.408 146.039 330.147 143.845 330.481 140.661C330.554 139.967 330.584 128.898 330.584 117.845C330.584 106.789 330.551 95.7413 330.478 95.0471C330.14 91.8115 329.401 89.6359 327.897 87.3363C326.663 85.4538 325.293 84.048 323.303 82.6106C319.752 80.0643 315.41 78.5147 310.236 77.9544C307.729 77.6823 307.229 77.6017 294.401 77.585H276.933Z"
                fill="#D9D9D9" />
        </g>
    </g>
    <path
        d="M161.985 68.8598L158.502 55.53H161.397L163.526 64.6033L165.615 55.53H168.264L164.781 68.8598V75.4439H161.985V68.8598Z"
        fill="white" />
    <path
        d="M170.029 60.5245C170.029 57.3563 171.491 55.5137 174.208 55.5137C176.926 55.5137 178.388 57.3563 178.388 60.5245V70.8693C178.388 74.1021 176.926 75.8801 174.208 75.8801C171.491 75.8801 170.029 74.0482 170.029 70.8693V60.5245ZM172.776 71.0525C172.776 72.4749 173.335 73.0137 174.208 73.0137C175.081 73.0137 175.631 72.4749 175.631 71.0525V60.2766C175.631 58.865 175.081 58.3262 174.208 58.3262C173.335 58.3262 172.776 58.865 172.776 60.2766V71.0525Z"
        fill="white" />
    <path
        d="M182.784 55.53V70.8857C182.784 72.2973 183.343 72.8361 184.216 72.8361C185.089 72.8361 185.648 72.3404 185.648 70.8857V55.53H188.258V70.6917C188.258 73.9245 186.865 75.7133 184.147 75.7133C181.43 75.7133 180.037 73.8706 180.037 70.6917V55.53H182.784Z"
        fill="white" />
    <path
        d="M192.429 61.0042V75.4439H189.947V55.53H193.401L196.226 67.4374V55.53H198.699V75.4439H195.844L192.429 61.0042Z"
        fill="white" />
    <path
        d="M204.752 64.5439H208.618V70.8693C208.618 74.1021 207.225 75.8801 204.507 75.8801C201.789 75.8801 200.376 74.0482 200.376 70.8693V60.5245C200.376 57.3563 201.77 55.5137 204.487 55.5137C207.205 55.5137 208.598 57.3563 208.598 60.5245V62.4857H205.988V60.3305C205.988 58.9081 205.429 58.3693 204.556 58.3693C203.683 58.3693 203.124 58.9081 203.124 60.3305V71.1064C203.124 72.518 203.683 73.0245 204.556 73.0245C205.429 73.0245 205.988 72.518 205.988 71.1064V67.3779H204.733L204.752 64.5439Z"
        fill="white" />
    <path
        d="M145.02 85.2222L144.294 92.8408H141.606L140.174 78.5627H142.126L143.176 89.8128L144.118 78.5627H146.031L147.012 89.8882L148.052 78.5627H149.759L148.366 92.8408H145.756L145.02 85.2222Z"
        fill="white" />
    <path
        d="M152.713 84.5757H155.43V86.6339H152.713V90.8149H156.127V92.8408H150.76V78.5627H156.127V80.5886H152.713V84.5757Z"
        fill="white" />
    <path
        d="M163.288 81.8542V82.3606C163.288 83.8154 162.905 84.7637 161.993 85.227C163.042 85.6904 163.454 86.8003 163.454 88.2874V89.4404C163.454 91.6602 162.473 92.8025 160.511 92.8025H157.362V78.5244H160.354C162.414 78.5244 163.297 79.602 163.297 81.8542M159.373 80.5934V84.3865H160.099C160.835 84.3865 161.286 83.9986 161.286 82.8563V82.0266C161.286 80.949 160.972 80.5718 160.305 80.5718L159.373 80.5934ZM159.373 86.4124V90.8197H160.492C161.149 90.8197 161.473 90.4749 161.473 89.3973V88.1796C161.473 86.8326 161.09 86.4555 160.187 86.4555L159.373 86.4124Z"
        fill="white" />
    <path
        d="M168.863 88.7029L170.188 78.5627H172.945V92.8408H171.09V82.6145L169.697 92.8408H167.853L166.391 82.733V92.8408H164.645V78.5627H167.401L168.863 88.7029Z"
        fill="white" />
    <path
        d="M180.787 92.8025H178.825L178.472 90.1947H176.029L175.666 92.8025H173.841L175.862 78.5244H178.805L180.787 92.8025ZM176.294 88.2874H178.256L177.275 81.046L176.294 88.2874Z"
        fill="white" />
    <path
        d="M184.371 78.4128C186.333 78.4128 187.314 79.7059 187.314 82.012V82.4646H185.43V81.8503C185.43 80.7728 185.077 80.4387 184.449 80.4387C183.821 80.4387 183.468 80.8159 183.468 81.8503C183.468 84.8029 187.333 85.3417 187.333 89.3935C187.333 91.6887 186.352 92.9926 184.39 92.9926C182.428 92.9926 181.447 91.6887 181.447 89.3935V88.5098H183.291V89.5874C183.291 90.665 183.684 90.9668 184.272 90.9668C184.861 90.9668 185.253 90.5788 185.253 89.5874C185.253 86.6348 181.329 86.1068 181.329 82.0443C181.329 79.7383 182.31 78.4452 184.272 78.4452"
        fill="white" />
    <path d="M187.854 78.5627H193.957V80.5886H191.906V92.8408H189.915V80.5886H187.854V78.5627Z"
        fill="white" />
    <path
        d="M196.781 84.5757H199.499V86.6339H196.781V90.8149H200.196V92.8408H194.829V78.5627H200.196V80.5886H196.781V84.5757Z"
        fill="white" />
    <path
        d="M205.541 92.7977C205.38 92.2301 205.32 91.6337 205.364 91.0412V88.7783C205.364 87.4421 204.981 86.9787 204.079 86.9787H203.382V92.7977H201.42V78.5627H204.363C206.424 78.5627 207.307 79.6403 207.307 81.8494V82.927C207.374 83.4979 207.287 84.0779 207.056 84.5951C206.826 85.1122 206.463 85.5439 206.011 85.8365C206.993 86.2998 207.336 87.4097 207.336 88.8645V91.0843C207.304 91.669 207.377 92.2549 207.552 92.8085L205.541 92.7977ZM203.382 80.5455V84.9528H204.147C204.883 84.9528 205.335 84.5649 205.335 83.455V82.0865C205.335 81.0089 205.021 80.6317 204.353 80.6317L203.382 80.5455Z"
        fill="white" />
    <path
        d="M183.399 105.017V106.924C183.399 109.23 182.418 110.523 180.456 110.523C178.493 110.523 177.512 109.23 177.512 106.924V99.4995C177.512 97.2043 178.493 95.9004 180.456 95.9004C182.418 95.9004 183.399 97.2043 183.399 99.4995V100.879H181.515V99.3487C181.515 98.2711 181.132 97.9263 180.534 97.9263C179.936 97.9263 179.553 98.3142 179.553 99.3487V107.043C179.553 108.12 179.936 108.422 180.534 108.422C181.132 108.422 181.515 108.034 181.515 107.043V105.017H183.399Z"
        fill="white" />
    <path
        d="M190.998 110.341H189.036L188.682 107.733H186.239L185.896 110.341H184.081L186.082 96.0303H189.026L190.998 110.341ZM186.504 105.815H188.467L187.485 98.5842L186.504 105.815Z"
        fill="white" />
    <path
        d="M196.113 106.2L197.438 96.0491H200.195V110.338H198.311V100.068L196.957 110.338H195.103L193.641 100.23V110.338H191.904V96.0491H194.651L196.113 106.2Z"
        fill="white" />
    <path
        d="M207.479 99.5755V101.418C207.479 103.713 206.498 104.942 204.536 104.942H203.555V110.33H201.593V96.0303H204.536C206.557 96.0303 207.479 97.2587 207.479 99.554M203.555 98.0669V102.884H204.536C205.164 102.884 205.517 102.539 205.517 101.548V99.3924C205.517 98.3148 205.164 98.0561 204.536 98.0561L203.555 98.0669Z"
        fill="white" />
    <mask id="mask1_598_2683" style="mask-type:alpha" maskUnits="userSpaceOnUse" x="34" y="13"
        width="206" height="123">
        <path
            d="M236.183 27.3805C237.593 28.0701 238.877 29.034 239.975 30.2257C240.08 30.6227 238.576 29.928 236.62 28.77C229.059 24.3661 221.049 20.9677 212.758 18.6465C208.725 17.5052 197.487 16.3803 204.723 17.9187C213.751 19.5729 217.136 21.591 226.795 25.8091C227.111 25.9425 227.409 26.1204 227.683 26.3384C227.803 26.4542 227.577 26.3384 227.186 26.2226C220.515 23.1392 213.573 20.8221 206.469 19.3082C207.578 19.6444 208.66 20.0815 209.703 20.615H209.884C210.75 20.8861 211.562 21.3351 212.276 21.9383C212.276 22.0541 210.17 22.1203 203.655 20.7639C200.646 20.1188 200.496 20.5654 203.249 21.1113C207.411 21.8207 211.491 23.0185 215.421 24.6843C216.442 25.0486 217.446 25.4682 218.43 25.9414C220.566 26.8347 222.101 27.8272 221.965 28.0918C220.594 27.9305 219.254 27.5342 217.993 26.9174H217.738C214.729 25.7925 215.541 26.4211 223.259 30.2257C223.756 30.4053 224.212 30.6984 224.598 31.0859C224.598 31.2017 223.936 30.9701 223.184 30.6062C216.451 27.4149 209.371 25.191 202.121 23.9895C201.127 23.7861 200.121 23.659 199.111 23.609C199.111 23.609 199.397 23.609 203.625 24.6015C206.575 25.1687 209.446 26.147 212.171 27.5129C212.457 27.6948 212.652 27.8603 212.713 27.8933C212.773 27.9264 212.713 27.9926 212.261 27.8933C210.561 27.3805 206.514 26.6196 205.641 26.4542H205.551C200.265 25.693 194.924 25.4881 189.603 25.8422C184.067 26.1613 178.592 27.2564 173.309 29.1009C167.762 31.1128 162.422 33.7573 157.376 36.9913C150.787 41.2356 144.72 46.3888 139.321 52.3254C133.747 58.4049 128.71 65.0513 124.276 72.1754C123.223 73.8296 119.16 80.4463 119.16 80.4463C118.243 82.1004 117.355 83.7546 116.482 85.4088C115.61 87.0629 114.767 88.8163 113.94 90.6525L111.412 96.3924L106.432 107.972C106.432 107.972 82.6752 70.4882 82.5699 70.3558C82.5699 70.7197 58.5875 132.718 57.3087 135.91C53.8483 129.294 50.7489 123.074 48.5222 118.277C47.108 115.416 45.8812 112.447 44.8511 109.394C44.7901 109.195 44.7448 108.99 44.7157 108.782C44.5652 107.823 45.0016 108.087 45.9645 109.146C46.4008 109.543 46.8221 109.973 47.2283 110.42L46.5061 108.617C43.9634 102.364 35.6885 81.7861 35.192 79.2387C34.8195 77.7483 34.5281 76.2348 34.3193 74.7063H34.7707C35.7876 75.2559 36.7463 75.9271 37.6293 76.7078L38.171 77.0221C37.9001 75.5499 38.7577 74.7063 39.3445 75.5995L36.9372 69.9257C36.4769 69.0632 36.1036 68.148 35.8239 67.1964C35.4052 65.6303 35.1231 64.0241 34.9813 62.3993C34.9813 62.2835 34.9813 62.1511 35.1619 62.1842C35.4093 62.3451 35.6203 62.5657 35.7787 62.8294C35.957 63.0512 36.1181 63.2892 36.2602 63.5407L36.9673 64.6159L37.6594 65.8896L37.524 65.0956C37.524 64.7151 37.1479 63.5241 36.9974 62.9782C36.847 62.4324 37.2231 62.2173 37.7948 62.8294C39.3243 64.7177 40.68 66.7678 41.842 68.9498L41.496 68.1392C39.0135 62.482 39.0887 60.6459 41.6765 64.0204C43.7077 66.667 56.1201 88.6509 56.1201 88.6509L78.8386 29.8949C79.9821 31.6979 105.033 74.971 105.033 74.971C105.033 74.971 106.718 72.01 107.876 70.1408L109.275 67.8911C109.922 66.849 110.584 65.8069 111.292 64.7647C112.666 62.6915 114.09 60.6403 115.564 58.6112C116.407 57.4202 117.265 56.2292 118.122 55.0713C118.98 53.9134 119.913 52.772 120.845 51.763C125.401 46.1054 130.384 40.8817 135.74 36.1476C141.212 31.2441 147.138 26.986 153.419 23.4436C158.743 20.4559 164.348 18.1152 170.134 16.463C175.957 14.7948 181.933 13.8624 187.948 13.684C196.45 13.4574 204.936 14.6056 213.134 17.0916C221.152 19.5327 228.887 22.9853 236.183 27.3805Z"
            fill="url(#paint0_linear_598_2683)" />
        <path
            d="M236.183 27.3805C237.593 28.0701 238.877 29.034 239.975 30.2257C240.08 30.6227 238.576 29.928 236.62 28.77C229.059 24.3661 221.049 20.9677 212.758 18.6465C208.725 17.5052 197.487 16.3803 204.723 17.9187C213.751 19.5729 217.136 21.591 226.795 25.8091C227.111 25.9425 227.409 26.1204 227.683 26.3384C227.803 26.4542 227.577 26.3384 227.186 26.2226C220.515 23.1392 213.573 20.8221 206.469 19.3082C207.578 19.6444 208.66 20.0815 209.703 20.615H209.884C210.75 20.8861 211.562 21.3351 212.276 21.9383C212.276 22.0541 210.17 22.1203 203.655 20.7639C200.646 20.1188 200.496 20.5654 203.249 21.1113C207.411 21.8207 211.491 23.0185 215.421 24.6843C216.442 25.0486 217.446 25.4682 218.43 25.9414C220.566 26.8347 222.101 27.8272 221.965 28.0918C220.594 27.9305 219.254 27.5342 217.993 26.9174H217.738C214.729 25.7925 215.541 26.4211 223.259 30.2257C223.756 30.4053 224.212 30.6984 224.598 31.0859C224.598 31.2017 223.936 30.9701 223.184 30.6062C216.451 27.4149 209.371 25.191 202.121 23.9895C201.127 23.7861 200.121 23.659 199.111 23.609C199.111 23.609 199.397 23.609 203.625 24.6015C206.575 25.1687 209.446 26.147 212.171 27.5129C212.457 27.6948 212.652 27.8603 212.713 27.8933C212.773 27.9264 212.713 27.9926 212.261 27.8933C210.561 27.3805 206.514 26.6196 205.641 26.4542H205.551C200.265 25.693 194.924 25.4881 189.603 25.8422C184.067 26.1613 178.592 27.2564 173.309 29.1009C167.762 31.1128 162.422 33.7573 157.376 36.9913C150.787 41.2356 144.72 46.3888 139.321 52.3254C133.747 58.4049 128.71 65.0513 124.276 72.1754C123.223 73.8296 119.16 80.4463 119.16 80.4463C118.243 82.1004 117.355 83.7546 116.482 85.4088C115.61 87.0629 114.767 88.8163 113.94 90.6525L111.412 96.3924L106.432 107.972C106.432 107.972 82.6752 70.4882 82.5699 70.3558C82.5699 70.7197 58.5875 132.718 57.3087 135.91C53.8483 129.294 50.7489 123.074 48.5222 118.277C47.108 115.416 45.8812 112.447 44.8511 109.394C44.7901 109.195 44.7448 108.99 44.7157 108.782C44.5652 107.823 45.0016 108.087 45.9645 109.146C46.4008 109.543 46.8221 109.973 47.2283 110.42L46.5061 108.617C43.9634 102.364 35.6885 81.7861 35.192 79.2387C34.8195 77.7483 34.5281 76.2348 34.3193 74.7063H34.7707C35.7876 75.2559 36.7463 75.9271 37.6293 76.7078L38.171 77.0221C37.9001 75.5499 38.7577 74.7063 39.3445 75.5995L36.9372 69.9257C36.4769 69.0632 36.1036 68.148 35.8239 67.1964C35.4052 65.6303 35.1231 64.0241 34.9813 62.3993C34.9813 62.2835 34.9813 62.1511 35.1619 62.1842C35.4093 62.3451 35.6203 62.5657 35.7787 62.8294C35.957 63.0512 36.1181 63.2892 36.2602 63.5407L36.9673 64.6159L37.6594 65.8896L37.524 65.0956C37.524 64.7151 37.1479 63.5241 36.9974 62.9782C36.847 62.4324 37.2231 62.2173 37.7948 62.8294C39.3243 64.7177 40.68 66.7678 41.842 68.9498L41.496 68.1392C39.0135 62.482 39.0887 60.6459 41.6765 64.0204C43.7077 66.667 56.1201 88.6509 56.1201 88.6509L78.8386 29.8949C79.9821 31.6979 105.033 74.971 105.033 74.971C105.033 74.971 106.718 72.01 107.876 70.1408L109.275 67.8911C109.922 66.849 110.584 65.8069 111.292 64.7647C112.666 62.6915 114.09 60.6403 115.564 58.6112C116.407 57.4202 117.265 56.2292 118.122 55.0713C118.98 53.9134 119.913 52.772 120.845 51.763C125.401 46.1054 130.384 40.8817 135.74 36.1476C141.212 31.2441 147.138 26.986 153.419 23.4436C158.743 20.4559 164.348 18.1152 170.134 16.463C175.957 14.7948 181.933 13.8624 187.948 13.684C196.45 13.4574 204.936 14.6056 213.134 17.0916C221.152 19.5327 228.887 22.9853 236.183 27.3805Z"
            fill="url(#paint1_linear_598_2683)" />
    </mask>
    <g mask="url(#mask1_598_2683)">
        <path
            d="M131.236 0.964111C85.8381 0.964111 72.561 0.993667 69.9801 1.12874C60.6638 1.61741 54.8666 2.54304 48.5508 4.5272C43.6836 6.05236 39.845 7.82019 36.0565 10.2984C29.1571 14.8177 24.9756 20.3777 23.4619 26.9869C22.726 30.1954 22.5118 30.8498 22.4684 47.2386C22.4517 52.7015 22.4684 59.8911 22.4684 69.5346C22.4684 98.158 22.5185 106.528 22.736 108.153C23.4887 113.873 24.9103 117.472 27.921 121.409C33.6748 128.945 44.6637 134.602 57.6096 136.713C62.0922 137.441 67.0431 137.842 73.3989 138.032C76.0919 138.106 103.539 138.159 131.003 138.159C158.467 138.159 185.931 138.138 188.557 138.053C195.917 137.835 200.19 137.473 204.915 136.702C217.945 134.581 228.733 129.008 234.604 121.367C237.556 117.525 239.053 113.789 239.73 108.367C239.878 107.185 239.939 88.3382 239.939 69.5167C239.939 50.692 239.873 31.8799 239.725 30.6978C239.04 25.1884 237.543 21.4839 234.495 17.5682C231.995 14.3628 229.218 11.9691 225.187 9.5216C217.993 5.18584 209.195 2.54724 198.712 1.59314C193.632 1.12978 192.62 0.992579 166.628 0.964111H131.236Z"
            fill="url(#paint2_radial_598_2683)" />
        <path
            d="M131.236 0.964111C85.8381 0.964111 72.561 0.993667 69.9801 1.12874C60.6638 1.61741 54.8666 2.54304 48.5508 4.5272C43.6836 6.05236 39.845 7.82019 36.0565 10.2984C29.1571 14.8177 24.9756 20.3777 23.4619 26.9869C22.726 30.1954 22.5118 30.8498 22.4684 47.2386C22.4517 52.7015 22.4684 59.8911 22.4684 69.5346C22.4684 98.158 22.5185 106.528 22.736 108.153C23.4887 113.873 24.9103 117.472 27.921 121.409C33.6748 128.945 44.6637 134.602 57.6096 136.713C62.0922 137.441 67.0431 137.842 73.3989 138.032C76.0919 138.106 103.539 138.159 131.003 138.159C158.467 138.159 185.931 138.138 188.557 138.053C195.917 137.835 200.19 137.473 204.915 136.702C217.945 134.581 228.733 129.008 234.604 121.367C237.556 117.525 239.053 113.789 239.73 108.367C239.878 107.185 239.939 88.3382 239.939 69.5167C239.939 50.692 239.873 31.8799 239.725 30.6978C239.04 25.1884 237.543 21.4839 234.495 17.5682C231.995 14.3628 229.218 11.9691 225.187 9.5216C217.993 5.18584 209.195 2.54724 198.712 1.59314C193.632 1.12978 192.62 0.992579 166.628 0.964111H131.236Z"
            fill="url(#paint3_radial_598_2683)" />
        <path
            d="M131.236 0.964111C85.8381 0.964111 72.561 0.993667 69.9801 1.12874C60.6638 1.61741 54.8666 2.54304 48.5508 4.5272C43.6836 6.05236 39.845 7.82019 36.0565 10.2984C29.1571 14.8177 24.9756 20.3777 23.4619 26.9869C22.726 30.1954 22.5118 30.8498 22.4684 47.2386C22.4517 52.7015 22.4684 59.8911 22.4684 69.5346C22.4684 98.158 22.5185 106.528 22.736 108.153C23.4887 113.873 24.9103 117.472 27.921 121.409C33.6748 128.945 44.6637 134.602 57.6096 136.713C62.0922 137.441 67.0431 137.842 73.3989 138.032C76.0919 138.106 103.539 138.159 131.003 138.159C158.467 138.159 185.931 138.138 188.557 138.053C195.917 137.835 200.19 137.473 204.915 136.702C217.945 134.581 228.733 129.008 234.604 121.367C237.556 117.525 239.053 113.789 239.73 108.367C239.878 107.185 239.939 88.3382 239.939 69.5167C239.939 50.692 239.873 31.8799 239.725 30.6978C239.04 25.1884 237.543 21.4839 234.495 17.5682C231.995 14.3628 229.218 11.9691 225.187 9.5216C217.993 5.18584 209.195 2.54724 198.712 1.59314C193.632 1.12978 192.62 0.992579 166.628 0.964111H131.236Z"
            fill="url(#paint4_radial_598_2683)" />
        <path
            d="M131.236 0.964111C85.8381 0.964111 72.561 0.993667 69.9801 1.12874C60.6638 1.61741 54.8666 2.54304 48.5508 4.5272C43.6836 6.05236 39.845 7.82019 36.0565 10.2984C29.1571 14.8177 24.9756 20.3777 23.4619 26.9869C22.726 30.1954 22.5118 30.8498 22.4684 47.2386C22.4517 52.7015 22.4684 59.8911 22.4684 69.5346C22.4684 98.158 22.5185 106.528 22.736 108.153C23.4887 113.873 24.9103 117.472 27.921 121.409C33.6748 128.945 44.6637 134.602 57.6096 136.713C62.0922 137.441 67.0431 137.842 73.3989 138.032C76.0919 138.106 103.539 138.159 131.003 138.159C158.467 138.159 185.931 138.138 188.557 138.053C195.917 137.835 200.19 137.473 204.915 136.702C217.945 134.581 228.733 129.008 234.604 121.367C237.556 117.525 239.053 113.789 239.73 108.367C239.878 107.185 239.939 88.3382 239.939 69.5167C239.939 50.692 239.873 31.8799 239.725 30.6978C239.04 25.1884 237.543 21.4839 234.495 17.5682C231.995 14.3628 229.218 11.9691 225.187 9.5216C217.993 5.18584 209.195 2.54724 198.712 1.59314C193.632 1.12978 192.62 0.992579 166.628 0.964111H131.236Z"
            fill="url(#paint5_radial_598_2683)" />
    </g>
    <path fill-rule="evenodd" clip-rule="evenodd"
        d="M227.948 27.8093L227.932 27.7997C220.665 23.4223 212.962 19.9838 204.976 17.5526C196.82 15.0793 188.377 13.937 179.919 14.1624C173.937 14.3398 167.994 15.267 162.204 16.926L162.204 16.9261C156.449 18.5693 150.874 20.8974 145.578 23.869C139.325 27.396 133.425 31.6355 127.977 36.5177L127.976 36.5187L127.975 36.5197C122.638 41.2367 117.673 46.4417 113.133 52.0789L113.123 52.0913L113.113 52.103C112.193 53.0979 111.271 54.2259 110.422 55.372C109.567 56.5266 108.711 57.7146 107.87 58.9035L107.869 58.906L107.867 58.9085C106.396 60.9321 104.976 62.9776 103.606 65.045L103.604 65.0472L103.603 65.0493C102.901 66.0838 102.243 67.1197 101.597 68.1592L101.597 68.1596L100.198 70.4086C99.623 71.337 98.9149 72.5397 98.3493 73.5128C98.0668 73.9988 97.8204 74.4265 97.6447 74.7327C97.5568 74.8858 97.4866 75.0085 97.4384 75.0928C97.4144 75.135 97.3958 75.1676 97.3832 75.1896L97.3654 75.2209L97.3645 75.2225L97.3643 75.2229C97.3642 75.2229 97.3642 75.223 96.9921 74.9675C96.9921 74.9675 97.0883 74.7985 97.2505 74.5157C97.7673 73.615 98.954 71.56 99.8357 70.1374L101.235 67.8877C101.882 66.8456 102.544 65.8034 103.251 64.7613C104.625 62.6881 106.049 60.6369 107.524 58.6078C108.366 57.4168 109.224 56.2258 110.082 55.0679C110.939 53.91 111.872 52.7686 112.805 51.7596C117.36 46.102 122.343 40.8783 127.7 36.1442C133.172 31.2407 139.097 26.9826 145.378 23.4402C150.703 20.4524 156.308 18.1117 162.094 16.4596C167.916 14.7913 173.893 13.859 179.907 13.6806C188.409 13.454 196.895 14.6021 205.093 17.0882C213.112 19.5293 220.846 22.9818 228.143 27.3771C229.36 27.9727 230.484 28.7729 231.475 29.7479C231.535 29.8066 231.594 29.866 231.653 29.926C231.748 30.0231 231.842 30.1219 231.934 30.2223C231.954 30.2962 231.918 30.3323 231.833 30.3346C231.788 30.3358 231.73 30.3275 231.659 30.3103C231.612 30.2989 231.559 30.2834 231.501 30.2642C231.424 30.2389 231.339 30.2072 231.245 30.1693C230.637 29.923 229.68 29.4181 228.579 28.7666C221.019 24.3627 213.008 20.9643 204.717 18.6431C202.477 18.009 198.012 17.38 195.727 17.2099C195.322 17.1798 194.986 17.1641 194.742 17.1653C194.218 17.168 194.125 17.2492 194.708 17.4342C194.927 17.5038 195.242 17.5881 195.666 17.6884C195.954 17.7565 196.291 17.832 196.683 17.9153C202.882 19.0511 206.42 20.3586 211.156 22.4321C212.117 22.853 213.128 23.3054 214.22 23.7944C215.584 24.4047 217.074 25.0719 218.754 25.8057C218.905 25.8692 219.051 25.9429 219.193 26.0262C219.2 26.0304 219.207 26.0347 219.215 26.039C219.249 26.0592 219.282 26.08 219.316 26.1013C219.428 26.1731 219.537 26.2511 219.642 26.335C219.695 26.3856 219.681 26.392 219.617 26.3735C219.615 26.3731 219.614 26.3726 219.612 26.3722C219.58 26.3625 219.534 26.3469 219.478 26.3276C219.415 26.3058 219.339 26.2793 219.251 26.2516C219.217 26.2409 219.182 26.2301 219.146 26.2192C218.992 26.1481 218.838 26.0775 218.684 26.0072C218.683 26.0069 218.683 26.0066 218.682 26.0063C216.159 24.8557 213.598 23.8144 211.004 22.8844C207.894 21.7696 204.738 20.8148 201.546 20.0233C200.51 19.7666 199.471 19.527 198.428 19.3048C199.447 19.6135 200.443 20.0073 201.407 20.4828C201.492 20.5251 201.578 20.568 201.663 20.6116H201.843C202.491 20.8143 203.108 21.1164 203.677 21.5082C203.746 21.5555 203.814 21.6042 203.881 21.6542C204.002 21.7436 204.12 21.8373 204.236 21.9349C204.236 21.9392 204.233 21.9435 204.227 21.9475C204.183 21.978 203.971 22.0008 203.544 21.9869C202.808 21.963 201.429 21.8302 199.158 21.4397C198.157 21.2676 196.983 21.0454 195.615 20.7605C195.498 20.7354 195.385 20.712 195.277 20.6902C195.274 20.6896 195.271 20.6889 195.268 20.6883C194.546 20.5431 194.017 20.4687 193.681 20.4479C193.116 20.4129 193.1 20.5297 193.637 20.7154C193.96 20.8273 194.484 20.9641 195.208 21.1078C195.32 21.1268 195.431 21.1462 195.543 21.1659C195.543 21.166 195.544 21.1661 195.545 21.1662C196.729 21.3759 197.907 21.6251 199.076 21.9135C201.901 22.6099 204.676 23.5346 207.38 24.6808C208.401 25.0452 209.406 25.4648 210.389 25.938C211.731 26.4992 212.836 27.0996 213.438 27.534C213.734 27.7469 213.908 27.92 213.931 28.0291C213.935 28.0517 213.934 28.0715 213.925 28.0884C213.781 28.0715 213.638 28.0521 213.495 28.03C213.422 28.0187 213.348 28.0067 213.275 27.994C212.13 27.7959 211.013 27.433 209.953 26.914H209.697C209.185 26.7227 208.784 26.5821 208.509 26.4992C207.976 26.3391 207.913 26.3944 208.428 26.7154C208.672 26.8673 209.046 27.0789 209.56 27.3553C209.585 27.3687 209.611 27.3822 209.636 27.3959C210.385 27.7967 211.419 28.3283 212.771 29.0062C213.494 29.3689 214.308 29.7735 215.219 30.2223C215.24 30.2301 215.262 30.2382 215.284 30.2464C215.284 30.2468 215.285 30.2471 215.286 30.2474C215.62 30.3759 215.935 30.5562 216.221 30.7822C216.338 30.8748 216.451 30.975 216.558 31.0825C216.558 31.0945 216.551 31.1028 216.537 31.1076C216.503 31.1193 216.43 31.1097 216.327 31.0825C216.268 31.0669 216.2 31.0456 216.123 31.0192C215.864 30.9299 215.515 30.7825 215.144 30.6028C215.132 30.5974 215.121 30.592 215.11 30.5867C215.099 30.5814 215.087 30.5762 215.076 30.5709C214.256 30.1828 213.43 29.8091 212.599 29.4498C208.252 27.5701 203.774 26.0864 199.209 25.0131C198.028 24.7354 196.841 24.4852 195.65 24.2627C195.646 24.262 195.642 24.2613 195.638 24.2605C195.12 24.1638 194.6 24.0723 194.08 23.9861C193.086 23.7827 192.081 23.6555 191.071 23.6056C191.071 23.1237 191.072 23.1237 191.072 23.1237L191.074 23.1237L191.076 23.1237L191.081 23.1238C191.084 23.1239 191.087 23.124 191.09 23.1241C191.092 23.1242 191.094 23.1243 191.096 23.1244C192.122 23.1754 193.143 23.3045 194.153 23.5108C199.02 24.3177 203.81 25.5829 208.47 27.2899C208.376 27.2346 208.292 27.1844 208.219 27.1391C208.116 27.0746 208.027 27.016 207.956 26.9638C207.898 26.9212 207.811 26.8537 207.747 26.7685L207.746 26.7673C207.725 26.739 207.622 26.6011 207.637 26.3966C207.657 26.1002 207.875 25.9855 207.959 25.9567C208.041 25.9281 208.117 25.9296 208.151 25.931C208.194 25.9329 208.236 25.9388 208.274 25.9454C208.537 25.9916 209.064 26.1694 209.77 26.432H210.046L210.132 26.4737C210.718 26.7607 211.322 26.9982 211.938 27.1849C211.446 26.9269 210.868 26.6537 210.233 26.3884L210.223 26.3842L210.213 26.3795C209.243 25.9126 208.252 25.4987 207.245 25.1392L207.233 25.1352L207.222 25.1305C203.322 23.4771 199.272 22.2882 195.141 21.5841L195.136 21.5832L195.13 21.5821C194.434 21.444 193.909 21.3099 193.56 21.1938C193.39 21.1372 193.241 21.0781 193.131 21.0157C193.084 20.9886 193.001 20.9376 192.933 20.8545C192.897 20.8117 192.837 20.7259 192.815 20.5985C192.789 20.4487 192.826 20.3031 192.903 20.1935C192.968 20.1008 193.046 20.0542 193.09 20.0324C193.137 20.0084 193.183 19.9949 193.217 19.9868C193.284 19.9704 193.356 19.9639 193.422 19.9613C193.556 19.956 193.73 19.9649 193.935 19.9859C194.349 20.0283 194.938 20.1243 195.697 20.2872C198.946 20.9634 201.086 21.2832 202.409 21.4199C202.489 21.4281 202.565 21.4357 202.639 21.4426C202.361 21.3051 202.074 21.1884 201.781 21.0935H201.566L201.478 21.0485C200.456 20.5263 199.397 20.0984 198.311 19.7694L198.512 18.8317C200.308 19.2144 202.093 19.6482 203.867 20.1326C201.763 19.4755 199.474 18.9153 196.611 18.3907L196.605 18.3896L196.6 18.3885C195.693 18.1957 195.063 18.0421 194.668 17.9227C194.477 17.8647 194.316 17.8076 194.203 17.7486C194.16 17.7262 194.059 17.6719 193.981 17.5705C193.938 17.514 193.865 17.394 193.87 17.2228C193.875 17.0396 193.966 16.9163 194.033 16.8534C194.138 16.7546 194.262 16.727 194.301 16.7183L194.303 16.718C194.365 16.7042 194.433 16.6965 194.498 16.6917C194.631 16.6819 194.8 16.6812 194.993 16.6868C195.382 16.698 195.906 16.7359 196.512 16.7942C198.929 17.0265 202.775 17.5957 204.827 18.1764C213.151 20.507 221.194 23.9192 228.785 28.3408L228.786 28.3416L228.787 28.3424C229.13 28.5453 229.457 28.733 229.763 28.9024C229.193 28.4874 228.591 28.1242 227.964 27.8174L227.948 27.8093ZM195.585 24.5981C194.999 24.4607 194.489 24.3423 194.045 24.2402C194.042 24.2396 194.04 24.239 194.037 24.2384C191.283 23.6056 191.071 23.6056 191.071 23.6056V23.1237L191.051 24.0871C191.048 24.0869 191.046 24.0867 191.044 24.0866L191.041 24.0863L191.044 24.0866C191.052 24.0876 191.073 24.0905 191.116 24.0976C191.201 24.1119 191.364 24.1418 191.661 24.2033C192.256 24.3263 193.38 24.5735 195.493 25.0694L195.501 25.0713L195.509 25.0729C197.352 25.4272 199.164 25.944 200.928 26.6175C199.574 26.3354 198.286 26.0915 197.761 25.9922L197.638 25.9688H197.539C192.235 25.2071 186.877 25.0024 181.537 25.3576C175.965 25.679 170.453 26.7814 165.135 28.6382L165.133 28.639L165.131 28.6398C159.555 30.6623 154.187 33.3207 149.114 36.5716L149.113 36.5721C142.493 40.8371 136.396 46.0153 130.971 51.9808C125.378 58.0811 120.323 64.75 115.874 71.8983C115.344 72.7308 114.064 74.7998 112.919 76.6575C112.345 77.5882 111.805 78.4671 111.407 79.1134C111.209 79.4365 111.046 79.7015 110.933 79.8857L110.757 80.1721L110.756 80.1731L110.756 80.1733C110.756 80.1733 110.756 80.1734 111.12 80.4428L110.756 80.1733L110.75 80.1825L110.745 80.192C109.825 81.8501 108.936 83.5075 108.062 85.1637C107.184 86.829 106.336 88.5921 105.506 90.4352L105.505 90.4372L102.976 96.1811L102.975 96.1831L98.3184 107.01L97.7304 106.082C97.0806 105.057 96.1522 103.592 95.0378 101.834C92.809 98.3178 89.8361 93.6282 86.8599 88.9345C83.8837 84.2408 80.9042 79.5428 78.6622 76.0101C77.5412 74.2437 76.6044 72.7685 75.9447 71.7308C75.6148 71.2119 75.354 70.8022 75.174 70.5201C75.1231 70.4402 75.0785 70.3704 75.0406 70.3112C75.0117 70.2659 74.9866 70.2268 74.9656 70.1941C74.9415 70.1565 74.9223 70.1268 74.9085 70.1056L74.9075 70.104C74.9018 70.0951 74.8783 70.0586 74.8597 70.0352L74.0906 69.0688V70.2766C74.0812 70.3045 74.0683 70.3416 74.0517 70.3885C74.0075 70.5131 73.9411 70.695 73.8533 70.9318C73.6781 71.4048 73.4204 72.0896 73.0913 72.9575C72.4334 74.6928 71.4919 77.1562 70.3578 80.1128C68.0897 86.0256 65.0521 93.9089 61.9744 101.881C56.4225 116.261 50.7429 130.924 49.2132 134.833C45.931 128.533 43.0012 122.641 40.8725 118.055L40.87 118.049L40.8673 118.044C39.4642 115.205 38.2468 112.26 37.2244 109.23C37.2026 109.159 37.1832 109.086 37.1661 109.013C37.2951 109.14 37.444 109.297 37.6135 109.483L37.6281 109.499L37.644 109.514C38.0676 109.899 38.4786 110.319 38.8774 110.757L39.5894 110.222L38.8672 108.419L38.8667 108.418L38.8662 108.417C37.5953 105.292 34.8918 98.586 32.4442 92.3441C31.2202 89.2229 30.0612 86.2198 29.1775 83.839C28.7355 82.6484 28.3634 81.6161 28.0868 80.8037C27.8061 79.9794 27.6346 79.4123 27.5805 79.1344L27.5779 79.121L27.5745 79.1077C27.2599 77.8486 27.0038 76.5729 26.8073 75.2854C27.6949 75.7899 28.5346 76.391 29.3137 77.0798L29.3465 77.1089L30.7438 77.9197L30.5605 76.9232C30.442 76.2793 30.5927 75.8875 30.7083 75.7585C30.7344 75.7294 30.7537 75.7184 30.7625 75.7146C30.7699 75.7115 30.7732 75.7117 30.7763 75.7121C30.78 75.7127 30.8476 75.725 30.9482 75.8781L31.7017 75.3925L29.2857 69.6982L29.2752 69.6786C28.832 68.8481 28.4724 67.9671 28.2027 67.051C27.8675 65.7959 27.6216 64.5145 27.4672 63.2184C27.6064 63.3989 27.7333 63.5904 27.8469 63.7914L27.855 63.8058L28.5599 64.8776L29.2421 66.1332L30.0501 65.7974L29.9211 65.0405C29.9147 64.8936 29.8829 64.7216 29.8492 64.566C29.8087 64.3792 29.7543 64.1674 29.6969 63.9571C29.6393 63.746 29.5771 63.5306 29.5207 63.336C29.5124 63.3075 29.5042 63.2794 29.4962 63.252C29.4933 63.2418 29.4904 63.2318 29.4875 63.2218C30.9728 65.0654 32.2908 67.0642 33.4228 69.1897L34.1988 68.7417L33.8517 67.9289L33.8507 67.9266C33.2337 66.5205 32.7797 65.361 32.485 64.467C32.3376 64.0198 32.2321 63.6453 32.1658 63.3436C32.1336 63.1969 32.1121 63.0738 32.0989 62.9723C32.368 63.1969 32.7662 63.6307 33.3004 64.3274L33.3005 64.3276C33.787 64.9614 34.9267 66.8017 36.3825 69.2459C37.83 71.6761 39.5706 74.6698 41.2487 77.5824C42.9266 80.4948 44.5411 83.3246 45.7363 85.4265C46.3338 86.4774 46.8265 87.3462 47.1697 87.9523C47.3413 88.2553 47.4756 88.4927 47.567 88.6542L47.7061 88.9005L47.7066 88.9013C47.7067 88.9014 47.7067 88.9015 48.0796 88.6475L47.7067 88.9015L48.1527 89.6913L70.8825 30.906C72.5558 33.7301 78.3049 43.6253 83.9539 53.3646C87.1566 58.8863 90.3236 64.3517 92.6899 68.4367C93.8731 70.4792 94.8561 72.1765 95.5433 73.3633C95.8869 73.9567 96.1565 74.4224 96.3403 74.7397L96.6216 75.2256C96.6218 75.226 96.6219 75.2261 96.9921 74.9675L96.6219 75.2261L96.9953 75.8712L97.3643 75.2229L96.9921 74.9675C96.9921 74.9675 96.9017 74.8113 96.7314 74.5171C94.194 70.1346 73.9333 35.1445 71.089 30.372C70.9475 30.1345 70.8491 29.9718 70.7981 29.8915L48.0796 88.6475C48.0796 88.6475 47.9797 88.4707 47.7965 88.1468C45.9366 84.8596 35.485 66.4262 33.636 64.0169C31.4327 61.1438 31.0508 62.048 32.5182 65.8719C32.7743 66.5391 33.0866 67.2953 33.4555 68.1358L33.8015 68.9464C33.6637 68.6876 33.5232 68.4307 33.38 68.1758C33.3798 68.1755 33.3797 68.1752 33.3795 68.1749C32.9842 67.471 32.5683 66.7816 32.1326 66.1078C31.3954 64.9676 30.6015 63.8719 29.7543 62.8259C29.1826 62.2139 28.8064 62.4289 28.9569 62.9748C28.989 63.0915 29.0315 63.2376 29.0784 63.399C29.1798 63.7479 29.3019 64.168 29.3853 64.516C29.4439 64.7602 29.4835 64.9688 29.4835 65.0921L29.6189 65.8862L28.9268 64.6124L28.2197 63.5372C28.0776 63.2858 27.9165 63.0478 27.7382 62.8259C27.6384 62.6599 27.5179 62.511 27.3805 62.3833C27.3802 62.383 27.3799 62.3827 27.3796 62.3825C27.3787 62.3817 27.3778 62.3808 27.377 62.38C27.3671 62.3709 27.3572 62.3619 27.3472 62.3531C27.276 62.2899 27.2006 62.2323 27.1214 62.1808C26.9408 62.1477 26.9408 62.2801 26.9408 62.3959C26.9438 62.4302 26.9469 62.4646 26.95 62.4989C26.9543 62.5462 26.9587 62.5934 26.9632 62.6407C27.1113 64.182 27.3857 65.7056 27.7833 67.1929C28.0631 68.1446 28.4364 69.0598 28.8967 69.9223L31.304 75.5961C31.1056 75.2941 30.8763 75.1906 30.67 75.2429C30.3511 75.3237 30.0875 75.7768 30.0791 76.4439C30.0769 76.6213 30.0928 76.8139 30.1304 77.0187L29.5888 76.7044C28.7058 75.9237 27.7471 75.2524 26.7302 74.7029H26.2788C26.3008 74.8637 26.3237 75.0243 26.3474 75.1848C26.5498 76.5496 26.8182 77.9017 27.1514 79.2353C27.6479 81.7827 35.9229 102.361 38.4656 108.613L39.1878 110.416C38.9202 110.122 38.6461 109.835 38.3654 109.56C38.22 109.417 38.0729 109.278 37.9239 109.143C36.961 108.084 36.5247 107.819 36.6752 108.779C36.7043 108.987 36.7496 109.191 36.8106 109.391C37.8407 112.444 39.0675 115.412 40.4817 118.274C42.6498 122.945 45.6454 128.964 48.996 135.386C49.0865 135.56 49.1772 135.733 49.2682 135.907C49.3132 135.795 49.3865 135.609 49.4859 135.356C52.0607 128.796 72.1764 76.7872 74.3408 70.8938C74.4643 70.5575 74.5294 70.3714 74.5294 70.3524C74.5362 70.361 74.6429 70.5272 74.8364 70.8306C77.4273 74.8929 95.5858 103.542 98.1023 107.512C98.2906 107.809 98.3914 107.968 98.3914 107.968L103.371 96.389L105.899 90.649C106.727 88.8129 107.569 87.0595 108.442 85.4053C109.314 83.7512 110.202 82.097 111.12 80.4428C111.12 80.4428 115.182 73.8262 116.235 72.172C120.669 65.0479 125.707 58.4015 131.281 52.322C136.68 46.3853 142.747 41.2322 149.335 36.9878C154.381 33.7539 159.721 31.1094 165.268 29.0975C170.551 27.253 176.027 26.1579 181.562 25.8388C186.884 25.4847 192.224 25.6896 197.51 26.4508H197.601L197.682 26.4661C198.546 26.6298 201.47 27.1835 203.343 27.652C203.568 27.7084 203.779 27.7636 203.968 27.8167C203.979 27.8196 203.989 27.8225 203.999 27.8254C204.077 27.8473 204.151 27.8688 204.221 27.8899C204.231 27.8923 204.242 27.8946 204.252 27.8968C204.473 27.9434 204.594 27.9482 204.65 27.9376C204.702 27.928 204.7 27.9053 204.672 27.8899C204.649 27.8773 204.607 27.8456 204.547 27.8012C204.49 27.7584 204.417 27.7038 204.33 27.643C204.317 27.6338 204.303 27.6244 204.289 27.6148C204.284 27.6111 204.278 27.6073 204.273 27.6035C204.228 27.5731 204.181 27.5415 204.13 27.5095C203.915 27.4013 203.698 27.2956 203.48 27.1923C202.056 26.5161 200.594 25.9446 199.103 25.4811C197.946 25.1212 196.772 24.8264 195.585 24.5981ZM29.1458 62.9367C29.1458 62.9366 29.1465 62.9367 29.148 62.9371C29.1466 62.9369 29.1459 62.9367 29.1458 62.9367ZM32.0901 62.6463C32.0903 62.6466 32.0896 62.6507 32.0875 62.6573C32.0888 62.6492 32.0899 62.6459 32.0901 62.6463ZM31.854 62.8083C31.8504 62.8077 31.8485 62.807 31.8485 62.8069C31.8484 62.8067 31.8502 62.807 31.854 62.8083ZM193.532 20.1577C193.528 20.1558 193.527 20.1548 193.527 20.1547C193.527 20.1546 193.529 20.1555 193.532 20.1577ZM194.477 17.6628C194.478 17.6626 194.479 17.6624 194.48 17.6621C194.468 17.6661 194.465 17.6655 194.477 17.6628ZM194.57 16.8723C194.57 16.8723 194.573 16.8738 194.577 16.8769C194.572 16.8738 194.569 16.8723 194.57 16.8723Z"
        fill="white" />
    <mask id="mask2_598_2683" style="mask-type:alpha" maskUnits="userSpaceOnUse" x="223" y="41"
        width="74" height="51">
        <path
            d="M223.561 91.9845V69.523H229.178V63.9076H240.413V58.2922H246.031V52.6768H234.796V58.2922H223.561V47.0614H229.178V41.446H251.648V47.0614H257.265V63.9076H251.648V69.523H240.413V75.1384H234.796V80.7538H257.265V91.9845H223.561Z"
            fill="url(#paint6_linear_598_2683)" />
        <path
            d="M285.352 80.7538V63.9076V58.2922V52.6768H274.117V69.523V75.1384V80.7538H285.352ZM268.5 91.9845V86.3692H262.883V47.0614H268.5V41.446H290.969V47.0614H296.587V86.3692H290.969V91.9845H268.5Z"
            fill="url(#paint7_linear_598_2683)" />
    </mask>
    <g mask="url(#mask2_598_2683)">
        <path
            d="M255.61 33.0928C232.468 33.0928 225.7 33.1097 224.385 33.1868C219.636 33.4661 216.68 33.995 213.461 35.1288C210.98 36.0003 209.023 37.0105 207.092 38.4266C203.575 41.0091 201.443 44.1863 200.672 47.9629C200.297 49.7964 200.188 50.1703 200.165 59.5353C200.157 62.657 200.165 66.7654 200.165 72.2759C200.165 88.6322 200.191 93.4148 200.302 94.3436C200.686 97.6124 201.41 99.669 202.945 101.919C205.878 106.225 211.479 109.457 218.079 110.664C220.364 111.08 222.887 111.309 226.127 111.417C227.5 111.46 241.491 111.49 255.491 111.49C269.491 111.49 283.491 111.478 284.829 111.43C288.581 111.305 290.759 111.098 293.168 110.658C299.81 109.445 305.309 106.261 308.302 101.894C309.807 99.6991 310.57 97.5642 310.915 94.466C310.99 93.7905 311.022 83.0209 311.022 72.2657C311.022 61.5087 310.987 50.7589 310.912 50.0834C310.563 46.9352 309.8 44.8184 308.246 42.5808C306.972 40.7492 305.556 39.3813 303.502 37.9828C299.835 35.5052 295.35 33.9974 290.006 33.4522C287.416 33.1874 286.9 33.109 273.651 33.0928H255.61Z"
            fill="url(#paint8_radial_598_2683)" />
        <path
            d="M255.61 55.583C232.468 55.583 225.7 55.5951 224.385 55.6501C219.636 55.8492 216.68 56.2264 213.461 57.0349C210.98 57.6564 209.023 58.3768 207.092 59.3867C203.575 61.2283 201.443 63.494 200.672 66.1871C200.297 67.4946 200.188 67.7612 200.165 74.4396C200.157 76.6657 200.165 79.5954 200.165 83.5251C200.165 95.189 200.191 98.5995 200.302 99.2619C200.686 101.593 201.41 103.06 202.945 104.664C205.878 107.735 211.479 110.04 218.079 110.9C220.364 111.197 222.887 111.36 226.127 111.438C227.5 111.468 241.491 111.489 255.491 111.489C269.491 111.489 283.491 111.481 284.829 111.446C288.581 111.357 290.759 111.21 293.168 110.896C299.81 110.031 305.309 107.76 308.302 104.647C309.807 103.081 310.57 101.559 310.915 99.3492C310.99 98.8675 311.022 91.1875 311.022 83.5178C311.022 75.8468 310.987 68.181 310.912 67.6993C310.563 65.4543 309.8 63.9447 308.246 62.3491C306.972 61.0429 305.556 60.0675 303.502 59.0701C299.835 57.3033 295.35 56.2281 290.006 55.8393C287.416 55.6505 286.9 55.5946 273.651 55.583H255.61Z"
            fill="url(#paint9_radial_598_2683)" />
        <path
            d="M255.61 55.583C232.468 55.583 225.7 55.5951 224.385 55.6501C219.636 55.8492 216.68 56.2264 213.461 57.0349C210.98 57.6564 209.023 58.3768 207.092 59.3867C203.575 61.2283 201.443 63.494 200.672 66.1871C200.297 67.4946 200.188 67.7612 200.165 74.4396C200.157 76.6657 200.165 79.5954 200.165 83.5251C200.165 95.189 200.191 98.5995 200.302 99.2619C200.686 101.593 201.41 103.06 202.945 104.664C205.878 107.735 211.479 110.04 218.079 110.9C220.364 111.197 222.887 111.36 226.127 111.438C227.5 111.468 241.491 111.489 255.491 111.489C269.491 111.489 283.491 111.481 284.829 111.446C288.581 111.357 290.759 111.21 293.168 110.896C299.81 110.031 305.309 107.76 308.302 104.647C309.807 103.081 310.57 101.559 310.915 99.3492C310.99 98.8675 311.022 91.1875 311.022 83.5178C311.022 75.8468 310.987 68.181 310.912 67.6993C310.563 65.4543 309.8 63.9447 308.246 62.3491C306.972 61.0429 305.556 60.0675 303.502 59.0701C299.835 57.3033 295.35 56.2281 290.006 55.8393C287.416 55.6505 286.9 55.5946 273.651 55.583H255.61Z"
            fill="url(#paint10_radial_598_2683)" />
        <path
            d="M255.61 55.583C232.468 55.583 225.7 55.5951 224.385 55.6501C219.636 55.8492 216.68 56.2264 213.461 57.0349C210.98 57.6564 209.023 58.3768 207.092 59.3867C203.575 61.2283 201.443 63.494 200.672 66.1871C200.297 67.4946 200.188 67.7612 200.165 74.4396C200.157 76.6657 200.165 79.5954 200.165 83.5251C200.165 95.189 200.191 98.5995 200.302 99.2619C200.686 101.593 201.41 103.06 202.945 104.664C205.878 107.735 211.479 110.04 218.079 110.9C220.364 111.197 222.887 111.36 226.127 111.438C227.5 111.468 241.491 111.489 255.491 111.489C269.491 111.489 283.491 111.481 284.829 111.446C288.581 111.357 290.759 111.21 293.168 110.896C299.81 110.031 305.309 107.76 308.302 104.647C309.807 103.081 310.57 101.558 310.915 99.3492C310.99 98.8675 311.022 91.1875 311.022 83.5178C311.022 75.8468 310.987 68.181 310.912 67.6993C310.563 65.4543 309.8 63.9447 308.246 62.3491C306.972 61.0429 305.556 60.0675 303.502 59.0701C299.835 57.3033 295.35 56.2281 290.006 55.8393C287.416 55.6505 286.9 55.5946 273.651 55.583H255.61Z"
            fill="url(#paint11_radial_598_2683)" />
    </g>
    <path fill-rule="evenodd" clip-rule="evenodd"
        d="M217.867 92.4234V69.0843H223.485V63.4689H234.719V57.8535H240.337V53.1156H229.979V58.731H217.867V46.6227H223.485V41.0073H246.832V46.6227H252.449V64.3464H246.832V69.9618H235.597V75.5772H229.979V80.315H252.449V92.4234H217.867ZM229.541 80.7538V75.1384H235.158V69.523H246.393V63.9076H252.01V47.0615H246.393V41.4461H223.923V47.0615H218.306V58.2923H229.541V52.6769H240.775V58.2923H235.158V63.9076H223.923V69.523H218.306V91.9846H252.01V80.7538H229.541ZM262.806 92.4234V86.808H257.189V46.6227H262.806V41.0073H286.153V46.6227H291.771V86.808H286.153V92.4234H262.806ZM285.714 86.3692H291.332V47.0615H285.714V41.4461H263.245V47.0615H257.628V86.3692H263.245V91.9846H285.714V86.3692ZM279.658 80.315V53.1156H269.301V80.315H279.658ZM280.097 80.7538H268.862V52.6769H280.097V80.7538Z"
        fill="white" />
    <path d="M19.9629 131.409H19.2339V132.21H19.9629V131.409Z" fill="#FFB623" />
    <path d="M18.5078 131.409H17.7793V132.21H18.5078V131.409Z" fill="#FFB623" />
    <path d="M17.0464 138.615H16.3174V139.416H17.0464V138.615Z" fill="#FFB623" />
    <path d="M17.0464 131.409H16.3174V132.21H17.0464V131.409Z" fill="#FFB623" />
    <path d="M17.0464 124.204H16.3174V125.004H17.0464V124.204Z" fill="#FFB623" />
    <path d="M16.3256 131.409H15.5967V132.21H16.3256V131.409Z" fill="#FFB623" />
    <path d="M15.5835 137.012H14.8545V137.813H15.5835V137.012Z" fill="#FFB623" />
    <path d="M15.5835 131.409H14.8545V132.21H15.5835V131.409Z" fill="#FFB623" />
    <path d="M15.5835 125.804H14.8545V126.605H15.5835V125.804Z" fill="#FFB623" />
    <path d="M14.1215 135.411H13.3926V136.211H14.1215V135.411Z" fill="#FFB623" />
    <path d="M14.1215 131.409H13.3926V132.21H14.1215V131.409Z" fill="#FFB623" />
    <path d="M14.1215 127.404H13.3926V128.205H14.1215V127.404Z" fill="#FFB623" />
    <path d="M13.4008 134.613H12.6719V135.413H13.4008V134.613Z" fill="#FFB623" />
    <path d="M13.4008 131.409H12.6719V132.21H13.4008V131.409Z" fill="#FFB623" />
    <path d="M13.4008 128.205H12.6719V129.005H13.4008V128.205Z" fill="#FFB623" />
    <path d="M12.6728 133.812H11.9443V134.613H12.6728V133.812Z" fill="#FFB623" />
    <path d="M12.6728 131.409H11.9443V132.21H12.6728V131.409Z" fill="#FFB623" />
    <path d="M12.6728 129.005H11.9443V129.806H12.6728V129.005Z" fill="#FFB623" />
    <path d="M11.9458 133.007H11.2168V133.808H11.9458V133.007Z" fill="#FFB623" />
    <path d="M11.9458 131.409H11.2168V132.21H11.9458V131.409Z" fill="#FFB623" />
    <path d="M11.9458 129.806H11.2168V130.606H11.9458V129.806Z" fill="#FFB623" />
    <path d="M11.2114 132.207H10.4824V133.008H11.2114V132.207Z" fill="#FFB623" />
    <path d="M11.2114 131.409H10.4824V132.21H11.2114V131.409Z" fill="#FFB623" />
    <path d="M11.2114 130.608H10.4824V131.409H11.2114V130.608Z" fill="#FFB623" />
    <path d="M10.4834 141.814H9.75439V142.614H10.4834V141.814Z" fill="#FFB623" />
    <path d="M10.4834 140.217H9.75439V141.017H10.4834V140.217Z" fill="#FFB623" />
    <path d="M10.4834 138.615H9.75439V139.416H10.4834V138.615Z" fill="#FFB623" />
    <path d="M10.4834 137.814H9.75439V138.615H10.4834V137.814Z" fill="#FFB623" />
    <path d="M10.4834 137.012H9.75439V137.813H10.4834V137.012Z" fill="#FFB623" />
    <path d="M10.4834 135.411H9.75439V136.211H10.4834V135.411Z" fill="#FFB623" />
    <path d="M10.4834 134.613H9.75439V135.413H10.4834V134.613Z" fill="#FFB623" />
    <path d="M10.4834 133.812H9.75439V134.613H10.4834V133.812Z" fill="#FFB623" />
    <path d="M10.4834 133.007H9.75439V133.808H10.4834V133.007Z" fill="#FFB623" />
    <path d="M10.4834 132.207H9.75439V133.008H10.4834V132.207Z" fill="#FFB623" />
    <path d="M10.4834 131.409H9.75439V132.21H10.4834V131.409Z" fill="#FFB623" />
    <path d="M10.4834 130.608H9.75439V131.409H10.4834V130.608Z" fill="#FFB623" />
    <path d="M10.4834 129.806H9.75439V130.606H10.4834V129.806Z" fill="#FFB623" />
    <path d="M10.4834 129.005H9.75439V129.806H10.4834V129.005Z" fill="#FFB623" />
    <path d="M10.4834 128.205H9.75439V129.005H10.4834V128.205Z" fill="#FFB623" />
    <path d="M10.4834 127.404H9.75439V128.205H10.4834V127.404Z" fill="#FFB623" />
    <path d="M10.4834 125.804H9.75439V126.605H10.4834V125.804Z" fill="#FFB623" />
    <path d="M10.4834 125.002H9.75439V125.802H10.4834V125.002Z" fill="#FFB623" />
    <path d="M10.4834 124.204H9.75439V125.004H10.4834V124.204Z" fill="#FFB623" />
    <path d="M10.4834 122.603H9.75439V123.403H10.4834V122.603Z" fill="#FFB623" />
    <path d="M10.4834 121H9.75439V121.801H10.4834V121Z" fill="#FFB623" />
    <path d="M9.75582 132.207H9.02686V133.008H9.75582V132.207Z" fill="#FFB623" />
    <path d="M9.75582 131.409H9.02686V132.21H9.75582V131.409Z" fill="#FFB623" />
    <path d="M9.75582 130.608H9.02686V131.409H9.75582V130.608Z" fill="#FFB623" />
    <path d="M9.0361 133.007H8.30713V133.808H9.0361V133.007Z" fill="#FFB623" />
    <path d="M9.0361 131.409H8.30713V132.21H9.0361V131.409Z" fill="#FFB623" />
    <path d="M9.0361 129.806H8.30713V130.606H9.0361V129.806Z" fill="#FFB623" />
    <path d="M8.29391 133.812H7.56494V134.613H8.29391V133.812Z" fill="#FFB623" />
    <path d="M8.29391 131.409H7.56494V132.21H8.29391V131.409Z" fill="#FFB623" />
    <path d="M8.29391 129.005H7.56494V129.806H8.29391V129.005Z" fill="#FFB623" />
    <path d="M7.57315 134.613H6.84473V135.413H7.57315V134.613Z" fill="#FFB623" />
    <path d="M7.57315 131.409H6.84473V132.21H7.57315V131.409Z" fill="#FFB623" />
    <path d="M7.57315 128.205H6.84473V129.005H7.57315V128.205Z" fill="#FFB623" />
    <path d="M6.84616 135.411H6.11719V136.211H6.84616V135.411Z" fill="#FFB623" />
    <path d="M6.84616 131.409H6.11719V132.21H6.84616V131.409Z" fill="#FFB623" />
    <path d="M6.84616 127.404H6.11719V128.205H6.84616V127.404Z" fill="#FFB623" />
    <path d="M5.38326 137.012H4.6543V137.813H5.38326V137.012Z" fill="#FFB623" />
    <path d="M5.38326 131.409H4.6543V132.21H5.38326V131.409Z" fill="#FFB623" />
    <path d="M5.38326 125.804H4.6543V126.605H5.38326V125.804Z" fill="#FFB623" />
    <path d="M4.64157 131.409H3.9126V132.21H4.64157V131.409Z" fill="#FFB623" />
    <path d="M3.92818 138.615H3.19922V139.416H3.92818V138.615Z" fill="#FFB623" />
    <path d="M3.92818 131.409H3.19922V132.21H3.92818V131.409Z" fill="#FFB623" />
    <path d="M3.92818 124.204H3.19922V125.004H3.92818V124.204Z" fill="#FFB623" />
    <path d="M2.48087 131.409H1.75244V132.21H2.48087V131.409Z" fill="#FFB623" />
    <path d="M1.01119 131.409H0.282227V132.21H1.01119V131.409Z" fill="#FFB623" />
    <path d="M37.6859 3.42676H34.5654V6.85318H37.6859V3.42676Z" fill="#F52222" />
    <path d="M34.5652 6.85571H31.4458V10.2833H34.5652V6.85571Z" fill="#F52222" />
    <path d="M34.5652 0H31.4458V3.42758H34.5652V0Z" fill="#F52222" />
    <path d="M31.4471 3.42676H28.3267V6.85318H31.4471V3.42676Z" fill="#F52222" />
    <path d="M89.2445 159.427H86.124V162.853H89.2445V159.427Z" fill="#F81A64" />
    <path d="M86.1237 162.856H83.0044V166.283H86.1237V162.856Z" fill="#F81A64" />
    <path d="M86.1237 156H83.0044V159.428H86.1237V156Z" fill="#F81A64" />
    <path d="M83.0052 159.427H79.8848V162.853H83.0052V159.427Z" fill="#F81A64" />
    <path d="M109.159 13.6531H105.193V18.0094H109.159V13.6531Z" fill="white" />
    <path d="M53.8229 135.584H49.8569V139.55H53.8229V135.584Z" fill="white" />
    <path d="M136.917 98.3652H134.465V101.06H136.917V98.3652Z" fill="#FF691D" />
    <path d="M132.008 103.753H129.556V106.447H132.008V103.753Z" fill="#FF691D" />
    <path d="M132.008 92.9773H129.556V95.6707H132.008V92.9773Z" fill="#FF691D" />
    <path d="M127.106 98.3652H124.653V101.06H127.106V98.3652Z" fill="#FF691D" />
    <g filter="url(#filter0_d_598_2683)">
        <mask id="path-116-outside-1_598_2683" maskUnits="userSpaceOnUse" x="82.4561" y="117.55"
            width="195" height="21" fill="black">
            <rect fill="white" x="82.4561" y="117.55" width="195" height="21" />
            <path
                d="M84.6287 136.869V136.429C84.6287 136.209 84.4724 136.05 84.2574 136.05H83.8274C83.6124 136.05 83.4561 135.89 83.4561 135.67V118.93C83.4561 118.71 83.6124 118.55 83.8274 118.55H88.3618C88.5768 118.55 88.7332 118.71 88.7332 118.93V135.67C88.7332 135.89 88.8895 136.05 89.1045 136.05H89.6713C89.8863 136.05 90.0427 135.89 90.0427 135.67V135.231C90.0427 135.011 90.199 134.851 90.414 134.851H90.844C91.059 134.851 91.2154 134.691 91.2154 134.471V118.93C91.2154 118.71 91.3717 118.55 91.5867 118.55H96.1211C96.3361 118.55 96.4925 118.71 96.4925 118.93V135.67C96.4925 135.89 96.6489 136.05 96.8638 136.05H97.4306C97.6456 136.05 97.802 135.89 97.802 135.67V135.231C97.802 135.011 97.9584 134.851 98.1734 134.851H98.6033C98.8183 134.851 98.9747 134.691 98.9747 134.471V118.93C98.9747 118.71 99.1311 118.55 99.346 118.55H103.88C104.095 118.55 104.252 118.71 104.252 118.93V132.074C104.252 132.294 104.095 132.454 103.88 132.454H103.45C103.235 132.454 103.079 132.614 103.079 132.833V133.273C103.079 133.493 102.923 133.652 102.708 133.652H101.691C101.476 133.652 101.32 133.812 101.32 134.032V134.471C101.32 134.691 101.164 134.851 100.949 134.851H100.519C100.304 134.851 100.147 135.011 100.147 135.231V135.67C100.147 135.89 99.991 136.05 99.776 136.05H99.5806C99.3656 136.05 99.2092 136.209 99.2092 136.429V136.869C99.2092 137.088 99.0529 137.248 98.8379 137.248H95.1048C94.8898 137.248 94.7335 137.088 94.7335 136.869V136.429C94.7335 136.209 94.5771 136.05 94.3621 136.05H93.9321C93.7171 136.05 93.5608 135.89 93.5608 135.67V135.231C93.5608 135.011 93.4044 134.851 93.1894 134.851H92.7594C92.5444 134.851 92.3881 135.011 92.3881 135.231V135.67C92.3881 135.89 92.2317 136.05 92.0167 136.05H91.5867C91.3717 136.05 91.2154 136.209 91.2154 136.429V136.869C91.2154 137.088 91.059 137.248 90.844 137.248H85.0001C84.7851 137.248 84.6287 137.088 84.6287 136.869ZM108.363 136.869V118.93C108.363 118.69 108.5 118.55 108.734 118.55H119.718C119.953 118.55 120.09 118.69 120.09 118.93V123.564C120.09 123.804 119.953 123.944 119.718 123.944H116.357C116.122 123.944 115.985 123.804 115.985 123.564V123.125C115.985 122.885 115.848 122.745 115.614 122.745H115.184C114.949 122.745 114.813 122.605 114.813 122.366V120.128C114.813 119.889 114.676 119.749 114.441 119.749H114.011C113.777 119.749 113.64 119.889 113.64 120.128V126.321C113.64 126.561 113.777 126.701 114.011 126.701H117.803C118.038 126.701 118.174 126.84 118.174 127.08V128.718C118.174 128.958 118.038 129.098 117.803 129.098H114.011C113.777 129.098 113.64 129.238 113.64 129.477V135.67C113.64 135.91 113.777 136.05 114.011 136.05H114.441C114.676 136.05 114.813 135.91 114.813 135.67V133.433C114.813 133.193 114.949 133.053 115.184 133.053H115.614C115.848 133.053 115.985 132.913 115.985 132.674V132.234C115.985 131.994 116.122 131.855 116.357 131.855H119.718C119.953 131.855 120.09 131.994 120.09 132.234V136.869C120.09 137.108 119.953 137.248 119.718 137.248H108.734C108.5 137.248 108.363 137.108 108.363 136.869ZM123.993 136.869V118.93C123.993 118.71 124.15 118.55 124.365 118.55H135.349C135.564 118.55 135.72 118.71 135.72 118.93L135.74 119.369C135.74 119.589 135.896 119.749 136.111 119.749H136.522C136.737 119.749 136.893 119.909 136.893 120.128V123.884C136.893 124.124 136.756 124.264 136.522 124.264H136.092C135.877 124.264 135.72 124.423 135.72 124.643V125.083C135.72 125.322 135.583 125.462 135.349 125.462H134.372C134.157 125.462 134 125.622 134 125.842V126.281C134 126.501 134.157 126.661 134.372 126.661H135.935C136.15 126.661 136.307 126.82 136.307 127.04V127.48C136.307 127.699 136.463 127.859 136.678 127.859H137.108C137.323 127.859 137.479 128.019 137.479 128.239V134.471C137.479 134.691 137.323 134.851 137.108 134.851H136.678C136.463 134.851 136.307 135.011 136.307 135.231V135.67C136.307 135.89 136.15 136.05 135.935 136.05H135.505C135.29 136.05 135.134 136.209 135.134 136.429V136.869C135.134 137.088 134.978 137.248 134.763 137.248H124.365C124.15 137.248 123.993 137.088 123.993 136.869ZM129.27 120.128V125.003C129.27 125.222 129.427 125.382 129.642 125.382H130.072C130.287 125.382 130.443 125.222 130.443 125.003V124.563C130.443 124.343 130.6 124.184 130.815 124.184H131.245C131.46 124.184 131.616 124.024 131.616 123.804V121.327C131.616 121.107 131.46 120.947 131.245 120.947H130.815C130.6 120.947 130.443 120.788 130.443 120.568V120.128C130.443 119.909 130.287 119.749 130.072 119.749H129.642C129.427 119.749 129.27 119.909 129.27 120.128ZM129.27 127.1V135.65C129.27 135.87 129.427 136.03 129.642 136.03H130.072C130.287 136.03 130.443 135.87 130.443 135.65V135.211C130.443 134.991 130.6 134.831 130.815 134.831H131.245C131.46 134.831 131.616 134.671 131.616 134.451V128.299C131.616 128.079 131.46 127.919 131.245 127.919H130.815C130.6 127.919 130.443 127.759 130.443 127.54V127.1C130.443 126.88 130.287 126.721 130.072 126.721H129.642C129.427 126.721 129.27 126.88 129.27 127.1ZM148.231 136.869V118.93C148.231 118.71 148.387 118.55 148.602 118.55H149.638C149.872 118.55 150.009 118.69 150.009 118.93V119.369C150.009 119.609 150.146 119.749 150.38 119.749H150.81C151.045 119.749 151.182 119.889 151.182 120.128V120.568C151.182 120.808 151.319 120.947 151.553 120.947H151.983C152.218 120.947 152.355 121.087 152.355 121.327V121.766C152.355 122.006 152.491 122.146 152.726 122.146H153.156C153.371 122.146 153.527 122.306 153.527 122.526V122.965C153.527 123.185 153.684 123.345 153.899 123.345H154.329C154.544 123.345 154.7 123.504 154.7 123.724V124.164C154.7 124.383 154.856 124.543 155.071 124.543H155.501C155.716 124.543 155.873 124.703 155.873 124.923V125.362C155.873 125.602 156.009 125.742 156.244 125.742H156.674C156.908 125.742 157.045 125.882 157.045 126.121V126.561C157.045 126.801 157.182 126.94 157.417 126.94H157.847C158.081 126.94 158.218 126.801 158.218 126.561V126.121C158.218 125.882 158.081 125.742 157.847 125.742H157.417C157.182 125.742 157.045 125.602 157.045 125.362V124.923C157.045 124.683 156.908 124.543 156.674 124.543H156.244C156.009 124.543 155.873 124.403 155.873 124.164V118.93C155.873 118.71 156.029 118.55 156.244 118.55H160.778C160.993 118.55 161.15 118.71 161.15 118.93V136.869C161.15 137.088 160.993 137.248 160.778 137.248H156.244C156.029 137.248 155.873 137.088 155.873 136.869V127.32C155.873 127.1 155.716 126.94 155.501 126.94H155.071C154.856 126.94 154.7 126.781 154.7 126.561V126.121C154.7 125.902 154.544 125.742 154.329 125.742H153.879C153.664 125.742 153.508 125.902 153.508 126.121V136.869C153.508 137.088 153.351 137.248 153.136 137.248H148.602C148.387 137.248 148.231 137.088 148.231 136.869ZM165.445 136.869V118.93C165.445 118.69 165.582 118.55 165.817 118.55H176.801C177.035 118.55 177.172 118.69 177.172 118.93V123.564C177.172 123.804 177.035 123.944 176.801 123.944H173.439C173.205 123.944 173.068 123.804 173.068 123.564V123.125C173.068 122.885 172.931 122.745 172.696 122.745H172.266C172.032 122.745 171.895 122.605 171.895 122.366V120.128C171.895 119.889 171.758 119.749 171.524 119.749H171.094C170.859 119.749 170.722 119.889 170.722 120.128V126.321C170.722 126.561 170.859 126.701 171.094 126.701H174.885C175.12 126.701 175.257 126.84 175.257 127.08V128.718C175.257 128.958 175.12 129.098 174.885 129.098H171.094C170.859 129.098 170.722 129.238 170.722 129.477V135.67C170.722 135.91 170.859 136.05 171.094 136.05H171.524C171.758 136.05 171.895 135.91 171.895 135.67V133.433C171.895 133.193 172.032 133.053 172.266 133.053H172.696C172.931 133.053 173.068 132.913 173.068 132.674V132.234C173.068 131.994 173.205 131.855 173.439 131.855H176.801C177.035 131.855 177.172 131.994 177.172 132.234V136.869C177.172 137.108 177.035 137.248 176.801 137.248H165.817C165.582 137.248 165.445 137.108 165.445 136.869ZM182.249 136.869V136.429C182.249 136.209 182.092 136.05 181.877 136.05H181.447C181.232 136.05 181.076 135.89 181.076 135.67V118.93C181.076 118.71 181.232 118.55 181.447 118.55H185.982C186.197 118.55 186.353 118.71 186.353 118.93V135.67C186.353 135.89 186.509 136.05 186.724 136.05H187.291C187.506 136.05 187.662 135.89 187.662 135.67V135.231C187.662 135.011 187.819 134.851 188.034 134.851H188.464C188.679 134.851 188.835 134.691 188.835 134.471V118.93C188.835 118.71 188.992 118.55 189.207 118.55H193.741C193.956 118.55 194.112 118.71 194.112 118.93V132.074C194.112 132.294 193.956 132.454 193.741 132.454H193.096C192.881 132.454 192.725 132.614 192.725 132.833V133.273C192.725 133.493 192.568 133.652 192.353 133.652H191.923C191.708 133.652 191.552 133.812 191.552 134.032V134.471C191.552 134.691 191.396 134.851 191.181 134.851H190.751C190.536 134.851 190.379 135.011 190.379 135.231V135.67C190.379 135.89 190.223 136.05 190.008 136.05H189.812C189.597 136.05 189.441 136.209 189.441 136.429V136.869C189.441 137.088 189.285 137.248 189.07 137.248H182.62C182.405 137.248 182.249 137.088 182.249 136.869ZM198.214 136.869V118.93C198.214 118.69 198.351 118.55 198.586 118.55H209.57C209.804 118.55 209.941 118.69 209.941 118.93V123.564C209.941 123.804 209.804 123.944 209.57 123.944H206.208C205.974 123.944 205.837 123.804 205.837 123.564V123.125C205.837 122.885 205.7 122.745 205.465 122.745H205.035C204.801 122.745 204.664 122.605 204.664 122.366V120.128C204.664 119.889 204.527 119.749 204.293 119.749H203.863C203.628 119.749 203.491 119.889 203.491 120.128V126.321C203.491 126.561 203.628 126.701 203.863 126.701H207.654C207.889 126.701 208.026 126.84 208.026 127.08V128.718C208.026 128.958 207.889 129.098 207.654 129.098H203.863C203.628 129.098 203.491 129.238 203.491 129.477V135.67C203.491 135.91 203.628 136.05 203.863 136.05H204.293C204.527 136.05 204.664 135.91 204.664 135.67V133.433C204.664 133.193 204.801 133.053 205.035 133.053H205.465C205.7 133.053 205.837 132.913 205.837 132.674V132.234C205.837 131.994 205.974 131.855 206.208 131.855H209.57C209.804 131.855 209.941 131.994 209.941 132.234V136.869C209.941 137.108 209.804 137.248 209.57 137.248H198.586C198.351 137.248 198.214 137.108 198.214 136.869ZM213.845 136.869V118.93C213.845 118.71 214.001 118.55 214.216 118.55H224.028C224.243 118.55 224.399 118.71 224.399 118.93V119.369C224.399 119.589 224.555 119.749 224.77 119.749H225.2C225.415 119.749 225.572 119.909 225.572 120.128V120.568C225.572 120.788 225.728 120.947 225.943 120.947H226.373C226.588 120.947 226.744 121.107 226.744 121.327V126.401C226.744 126.641 226.608 126.781 226.373 126.781H225.943C225.728 126.781 225.572 126.94 225.572 127.16V127.6C225.572 127.839 225.435 127.979 225.2 127.979H223.011C222.796 127.979 222.64 128.139 222.64 128.359V128.798C222.64 129.018 222.796 129.178 223.011 129.178H225.2C225.415 129.178 225.572 129.337 225.572 129.557V129.997C225.572 130.216 225.728 130.376 225.943 130.376H226.373C226.588 130.376 226.744 130.536 226.744 130.756V136.869C226.744 137.088 226.588 137.248 226.373 137.248H221.839C221.624 137.248 221.467 137.088 221.467 136.869V130.756C221.467 130.536 221.311 130.376 221.096 130.376H220.666C220.451 130.376 220.295 130.216 220.295 129.997V129.557C220.295 129.337 220.138 129.178 219.923 129.178H219.493C219.278 129.178 219.122 129.337 219.122 129.557V136.869C219.122 137.088 218.966 137.248 218.751 137.248H214.216C214.001 137.248 213.845 137.088 213.845 136.869ZM219.122 120.128V127.6C219.122 127.819 219.278 127.979 219.493 127.979H219.923C220.138 127.979 220.295 127.819 220.295 127.6V127.16C220.295 126.94 220.451 126.781 220.666 126.781H221.096C221.311 126.781 221.467 126.621 221.467 126.401V121.327C221.467 121.107 221.311 120.947 221.096 120.947H220.666C220.451 120.947 220.295 120.788 220.295 120.568V120.128C220.295 119.909 220.138 119.749 219.923 119.749H219.493C219.278 119.749 219.122 119.909 219.122 120.128ZM237.49 136.869V118.93C237.49 118.71 237.647 118.55 237.862 118.55H247.673C247.888 118.55 248.045 118.71 248.045 118.93V119.369C248.045 119.589 248.201 119.749 248.416 119.749H248.846C249.061 119.749 249.217 119.909 249.217 120.128V120.568C249.217 120.788 249.374 120.947 249.589 120.947H250.019C250.234 120.947 250.39 121.107 250.39 121.327V134.471C250.39 134.691 250.234 134.851 250.019 134.851H249.589C249.374 134.851 249.217 135.011 249.217 135.231V135.67C249.217 135.89 249.061 136.05 248.846 136.05H248.416C248.201 136.05 248.045 136.209 248.045 136.429V136.869C248.045 137.088 247.888 137.248 247.673 137.248H237.862C237.647 137.248 237.49 137.088 237.49 136.869ZM242.767 120.128V135.67C242.767 135.89 242.924 136.05 243.139 136.05H243.569C243.784 136.05 243.94 135.89 243.94 135.67V135.231C243.94 135.011 244.097 134.851 244.312 134.851H244.742C244.956 134.851 245.113 134.691 245.113 134.471V121.327C245.113 121.107 244.956 120.947 244.742 120.947H244.312C244.097 120.947 243.94 120.788 243.94 120.568V120.128C243.94 119.909 243.784 119.749 243.569 119.749H243.139C242.924 119.749 242.767 119.909 242.767 120.128ZM254.686 136.869V118.93C254.686 118.71 254.842 118.55 255.057 118.55H259.592C259.807 118.55 259.963 118.71 259.963 118.93V136.869C259.963 137.088 259.807 137.248 259.592 137.248H255.057C254.842 137.248 254.686 137.088 254.686 136.869ZM264.266 136.869V118.93C264.266 118.69 264.403 118.55 264.637 118.55H275.622C275.856 118.55 275.993 118.69 275.993 118.93V123.564C275.993 123.804 275.856 123.944 275.622 123.944H272.26C272.025 123.944 271.889 123.804 271.889 123.564V123.125C271.889 122.885 271.752 122.745 271.517 122.745H271.087C270.853 122.745 270.716 122.605 270.716 122.366V120.128C270.716 119.889 270.579 119.749 270.345 119.749H269.915C269.68 119.749 269.543 119.889 269.543 120.128V126.321C269.543 126.561 269.68 126.701 269.915 126.701H273.706C273.941 126.701 274.078 126.84 274.078 127.08V128.718C274.078 128.958 273.941 129.098 273.706 129.098H269.915C269.68 129.098 269.543 129.238 269.543 129.477V135.67C269.543 135.91 269.68 136.05 269.915 136.05H270.345C270.579 136.05 270.716 135.91 270.716 135.67V133.433C270.716 133.193 270.853 133.053 271.087 133.053H271.517C271.752 133.053 271.889 132.913 271.889 132.674V132.234C271.889 131.994 272.025 131.855 272.26 131.855H275.622C275.856 131.855 275.993 131.994 275.993 132.234V136.869C275.993 137.108 275.856 137.248 275.622 137.248H264.637C264.403 137.248 264.266 137.108 264.266 136.869Z" />
        </mask>
        <path
            d="M84.6287 136.869V136.429C84.6287 136.209 84.4724 136.05 84.2574 136.05H83.8274C83.6124 136.05 83.4561 135.89 83.4561 135.67V118.93C83.4561 118.71 83.6124 118.55 83.8274 118.55H88.3618C88.5768 118.55 88.7332 118.71 88.7332 118.93V135.67C88.7332 135.89 88.8895 136.05 89.1045 136.05H89.6713C89.8863 136.05 90.0427 135.89 90.0427 135.67V135.231C90.0427 135.011 90.199 134.851 90.414 134.851H90.844C91.059 134.851 91.2154 134.691 91.2154 134.471V118.93C91.2154 118.71 91.3717 118.55 91.5867 118.55H96.1211C96.3361 118.55 96.4925 118.71 96.4925 118.93V135.67C96.4925 135.89 96.6489 136.05 96.8638 136.05H97.4306C97.6456 136.05 97.802 135.89 97.802 135.67V135.231C97.802 135.011 97.9584 134.851 98.1734 134.851H98.6033C98.8183 134.851 98.9747 134.691 98.9747 134.471V118.93C98.9747 118.71 99.1311 118.55 99.346 118.55H103.88C104.095 118.55 104.252 118.71 104.252 118.93V132.074C104.252 132.294 104.095 132.454 103.88 132.454H103.45C103.235 132.454 103.079 132.614 103.079 132.833V133.273C103.079 133.493 102.923 133.652 102.708 133.652H101.691C101.476 133.652 101.32 133.812 101.32 134.032V134.471C101.32 134.691 101.164 134.851 100.949 134.851H100.519C100.304 134.851 100.147 135.011 100.147 135.231V135.67C100.147 135.89 99.991 136.05 99.776 136.05H99.5806C99.3656 136.05 99.2092 136.209 99.2092 136.429V136.869C99.2092 137.088 99.0529 137.248 98.8379 137.248H95.1048C94.8898 137.248 94.7335 137.088 94.7335 136.869V136.429C94.7335 136.209 94.5771 136.05 94.3621 136.05H93.9321C93.7171 136.05 93.5608 135.89 93.5608 135.67V135.231C93.5608 135.011 93.4044 134.851 93.1894 134.851H92.7594C92.5444 134.851 92.3881 135.011 92.3881 135.231V135.67C92.3881 135.89 92.2317 136.05 92.0167 136.05H91.5867C91.3717 136.05 91.2154 136.209 91.2154 136.429V136.869C91.2154 137.088 91.059 137.248 90.844 137.248H85.0001C84.7851 137.248 84.6287 137.088 84.6287 136.869ZM108.363 136.869V118.93C108.363 118.69 108.5 118.55 108.734 118.55H119.718C119.953 118.55 120.09 118.69 120.09 118.93V123.564C120.09 123.804 119.953 123.944 119.718 123.944H116.357C116.122 123.944 115.985 123.804 115.985 123.564V123.125C115.985 122.885 115.848 122.745 115.614 122.745H115.184C114.949 122.745 114.813 122.605 114.813 122.366V120.128C114.813 119.889 114.676 119.749 114.441 119.749H114.011C113.777 119.749 113.64 119.889 113.64 120.128V126.321C113.64 126.561 113.777 126.701 114.011 126.701H117.803C118.038 126.701 118.174 126.84 118.174 127.08V128.718C118.174 128.958 118.038 129.098 117.803 129.098H114.011C113.777 129.098 113.64 129.238 113.64 129.477V135.67C113.64 135.91 113.777 136.05 114.011 136.05H114.441C114.676 136.05 114.813 135.91 114.813 135.67V133.433C114.813 133.193 114.949 133.053 115.184 133.053H115.614C115.848 133.053 115.985 132.913 115.985 132.674V132.234C115.985 131.994 116.122 131.855 116.357 131.855H119.718C119.953 131.855 120.09 131.994 120.09 132.234V136.869C120.09 137.108 119.953 137.248 119.718 137.248H108.734C108.5 137.248 108.363 137.108 108.363 136.869ZM123.993 136.869V118.93C123.993 118.71 124.15 118.55 124.365 118.55H135.349C135.564 118.55 135.72 118.71 135.72 118.93L135.74 119.369C135.74 119.589 135.896 119.749 136.111 119.749H136.522C136.737 119.749 136.893 119.909 136.893 120.128V123.884C136.893 124.124 136.756 124.264 136.522 124.264H136.092C135.877 124.264 135.72 124.423 135.72 124.643V125.083C135.72 125.322 135.583 125.462 135.349 125.462H134.372C134.157 125.462 134 125.622 134 125.842V126.281C134 126.501 134.157 126.661 134.372 126.661H135.935C136.15 126.661 136.307 126.82 136.307 127.04V127.48C136.307 127.699 136.463 127.859 136.678 127.859H137.108C137.323 127.859 137.479 128.019 137.479 128.239V134.471C137.479 134.691 137.323 134.851 137.108 134.851H136.678C136.463 134.851 136.307 135.011 136.307 135.231V135.67C136.307 135.89 136.15 136.05 135.935 136.05H135.505C135.29 136.05 135.134 136.209 135.134 136.429V136.869C135.134 137.088 134.978 137.248 134.763 137.248H124.365C124.15 137.248 123.993 137.088 123.993 136.869ZM129.27 120.128V125.003C129.27 125.222 129.427 125.382 129.642 125.382H130.072C130.287 125.382 130.443 125.222 130.443 125.003V124.563C130.443 124.343 130.6 124.184 130.815 124.184H131.245C131.46 124.184 131.616 124.024 131.616 123.804V121.327C131.616 121.107 131.46 120.947 131.245 120.947H130.815C130.6 120.947 130.443 120.788 130.443 120.568V120.128C130.443 119.909 130.287 119.749 130.072 119.749H129.642C129.427 119.749 129.27 119.909 129.27 120.128ZM129.27 127.1V135.65C129.27 135.87 129.427 136.03 129.642 136.03H130.072C130.287 136.03 130.443 135.87 130.443 135.65V135.211C130.443 134.991 130.6 134.831 130.815 134.831H131.245C131.46 134.831 131.616 134.671 131.616 134.451V128.299C131.616 128.079 131.46 127.919 131.245 127.919H130.815C130.6 127.919 130.443 127.759 130.443 127.54V127.1C130.443 126.88 130.287 126.721 130.072 126.721H129.642C129.427 126.721 129.27 126.88 129.27 127.1ZM148.231 136.869V118.93C148.231 118.71 148.387 118.55 148.602 118.55H149.638C149.872 118.55 150.009 118.69 150.009 118.93V119.369C150.009 119.609 150.146 119.749 150.38 119.749H150.81C151.045 119.749 151.182 119.889 151.182 120.128V120.568C151.182 120.808 151.319 120.947 151.553 120.947H151.983C152.218 120.947 152.355 121.087 152.355 121.327V121.766C152.355 122.006 152.491 122.146 152.726 122.146H153.156C153.371 122.146 153.527 122.306 153.527 122.526V122.965C153.527 123.185 153.684 123.345 153.899 123.345H154.329C154.544 123.345 154.7 123.504 154.7 123.724V124.164C154.7 124.383 154.856 124.543 155.071 124.543H155.501C155.716 124.543 155.873 124.703 155.873 124.923V125.362C155.873 125.602 156.009 125.742 156.244 125.742H156.674C156.908 125.742 157.045 125.882 157.045 126.121V126.561C157.045 126.801 157.182 126.94 157.417 126.94H157.847C158.081 126.94 158.218 126.801 158.218 126.561V126.121C158.218 125.882 158.081 125.742 157.847 125.742H157.417C157.182 125.742 157.045 125.602 157.045 125.362V124.923C157.045 124.683 156.908 124.543 156.674 124.543H156.244C156.009 124.543 155.873 124.403 155.873 124.164V118.93C155.873 118.71 156.029 118.55 156.244 118.55H160.778C160.993 118.55 161.15 118.71 161.15 118.93V136.869C161.15 137.088 160.993 137.248 160.778 137.248H156.244C156.029 137.248 155.873 137.088 155.873 136.869V127.32C155.873 127.1 155.716 126.94 155.501 126.94H155.071C154.856 126.94 154.7 126.781 154.7 126.561V126.121C154.7 125.902 154.544 125.742 154.329 125.742H153.879C153.664 125.742 153.508 125.902 153.508 126.121V136.869C153.508 137.088 153.351 137.248 153.136 137.248H148.602C148.387 137.248 148.231 137.088 148.231 136.869ZM165.445 136.869V118.93C165.445 118.69 165.582 118.55 165.817 118.55H176.801C177.035 118.55 177.172 118.69 177.172 118.93V123.564C177.172 123.804 177.035 123.944 176.801 123.944H173.439C173.205 123.944 173.068 123.804 173.068 123.564V123.125C173.068 122.885 172.931 122.745 172.696 122.745H172.266C172.032 122.745 171.895 122.605 171.895 122.366V120.128C171.895 119.889 171.758 119.749 171.524 119.749H171.094C170.859 119.749 170.722 119.889 170.722 120.128V126.321C170.722 126.561 170.859 126.701 171.094 126.701H174.885C175.12 126.701 175.257 126.84 175.257 127.08V128.718C175.257 128.958 175.12 129.098 174.885 129.098H171.094C170.859 129.098 170.722 129.238 170.722 129.477V135.67C170.722 135.91 170.859 136.05 171.094 136.05H171.524C171.758 136.05 171.895 135.91 171.895 135.67V133.433C171.895 133.193 172.032 133.053 172.266 133.053H172.696C172.931 133.053 173.068 132.913 173.068 132.674V132.234C173.068 131.994 173.205 131.855 173.439 131.855H176.801C177.035 131.855 177.172 131.994 177.172 132.234V136.869C177.172 137.108 177.035 137.248 176.801 137.248H165.817C165.582 137.248 165.445 137.108 165.445 136.869ZM182.249 136.869V136.429C182.249 136.209 182.092 136.05 181.877 136.05H181.447C181.232 136.05 181.076 135.89 181.076 135.67V118.93C181.076 118.71 181.232 118.55 181.447 118.55H185.982C186.197 118.55 186.353 118.71 186.353 118.93V135.67C186.353 135.89 186.509 136.05 186.724 136.05H187.291C187.506 136.05 187.662 135.89 187.662 135.67V135.231C187.662 135.011 187.819 134.851 188.034 134.851H188.464C188.679 134.851 188.835 134.691 188.835 134.471V118.93C188.835 118.71 188.992 118.55 189.207 118.55H193.741C193.956 118.55 194.112 118.71 194.112 118.93V132.074C194.112 132.294 193.956 132.454 193.741 132.454H193.096C192.881 132.454 192.725 132.614 192.725 132.833V133.273C192.725 133.493 192.568 133.652 192.353 133.652H191.923C191.708 133.652 191.552 133.812 191.552 134.032V134.471C191.552 134.691 191.396 134.851 191.181 134.851H190.751C190.536 134.851 190.379 135.011 190.379 135.231V135.67C190.379 135.89 190.223 136.05 190.008 136.05H189.812C189.597 136.05 189.441 136.209 189.441 136.429V136.869C189.441 137.088 189.285 137.248 189.07 137.248H182.62C182.405 137.248 182.249 137.088 182.249 136.869ZM198.214 136.869V118.93C198.214 118.69 198.351 118.55 198.586 118.55H209.57C209.804 118.55 209.941 118.69 209.941 118.93V123.564C209.941 123.804 209.804 123.944 209.57 123.944H206.208C205.974 123.944 205.837 123.804 205.837 123.564V123.125C205.837 122.885 205.7 122.745 205.465 122.745H205.035C204.801 122.745 204.664 122.605 204.664 122.366V120.128C204.664 119.889 204.527 119.749 204.293 119.749H203.863C203.628 119.749 203.491 119.889 203.491 120.128V126.321C203.491 126.561 203.628 126.701 203.863 126.701H207.654C207.889 126.701 208.026 126.84 208.026 127.08V128.718C208.026 128.958 207.889 129.098 207.654 129.098H203.863C203.628 129.098 203.491 129.238 203.491 129.477V135.67C203.491 135.91 203.628 136.05 203.863 136.05H204.293C204.527 136.05 204.664 135.91 204.664 135.67V133.433C204.664 133.193 204.801 133.053 205.035 133.053H205.465C205.7 133.053 205.837 132.913 205.837 132.674V132.234C205.837 131.994 205.974 131.855 206.208 131.855H209.57C209.804 131.855 209.941 131.994 209.941 132.234V136.869C209.941 137.108 209.804 137.248 209.57 137.248H198.586C198.351 137.248 198.214 137.108 198.214 136.869ZM213.845 136.869V118.93C213.845 118.71 214.001 118.55 214.216 118.55H224.028C224.243 118.55 224.399 118.71 224.399 118.93V119.369C224.399 119.589 224.555 119.749 224.77 119.749H225.2C225.415 119.749 225.572 119.909 225.572 120.128V120.568C225.572 120.788 225.728 120.947 225.943 120.947H226.373C226.588 120.947 226.744 121.107 226.744 121.327V126.401C226.744 126.641 226.608 126.781 226.373 126.781H225.943C225.728 126.781 225.572 126.94 225.572 127.16V127.6C225.572 127.839 225.435 127.979 225.2 127.979H223.011C222.796 127.979 222.64 128.139 222.64 128.359V128.798C222.64 129.018 222.796 129.178 223.011 129.178H225.2C225.415 129.178 225.572 129.337 225.572 129.557V129.997C225.572 130.216 225.728 130.376 225.943 130.376H226.373C226.588 130.376 226.744 130.536 226.744 130.756V136.869C226.744 137.088 226.588 137.248 226.373 137.248H221.839C221.624 137.248 221.467 137.088 221.467 136.869V130.756C221.467 130.536 221.311 130.376 221.096 130.376H220.666C220.451 130.376 220.295 130.216 220.295 129.997V129.557C220.295 129.337 220.138 129.178 219.923 129.178H219.493C219.278 129.178 219.122 129.337 219.122 129.557V136.869C219.122 137.088 218.966 137.248 218.751 137.248H214.216C214.001 137.248 213.845 137.088 213.845 136.869ZM219.122 120.128V127.6C219.122 127.819 219.278 127.979 219.493 127.979H219.923C220.138 127.979 220.295 127.819 220.295 127.6V127.16C220.295 126.94 220.451 126.781 220.666 126.781H221.096C221.311 126.781 221.467 126.621 221.467 126.401V121.327C221.467 121.107 221.311 120.947 221.096 120.947H220.666C220.451 120.947 220.295 120.788 220.295 120.568V120.128C220.295 119.909 220.138 119.749 219.923 119.749H219.493C219.278 119.749 219.122 119.909 219.122 120.128ZM237.49 136.869V118.93C237.49 118.71 237.647 118.55 237.862 118.55H247.673C247.888 118.55 248.045 118.71 248.045 118.93V119.369C248.045 119.589 248.201 119.749 248.416 119.749H248.846C249.061 119.749 249.217 119.909 249.217 120.128V120.568C249.217 120.788 249.374 120.947 249.589 120.947H250.019C250.234 120.947 250.39 121.107 250.39 121.327V134.471C250.39 134.691 250.234 134.851 250.019 134.851H249.589C249.374 134.851 249.217 135.011 249.217 135.231V135.67C249.217 135.89 249.061 136.05 248.846 136.05H248.416C248.201 136.05 248.045 136.209 248.045 136.429V136.869C248.045 137.088 247.888 137.248 247.673 137.248H237.862C237.647 137.248 237.49 137.088 237.49 136.869ZM242.767 120.128V135.67C242.767 135.89 242.924 136.05 243.139 136.05H243.569C243.784 136.05 243.94 135.89 243.94 135.67V135.231C243.94 135.011 244.097 134.851 244.312 134.851H244.742C244.956 134.851 245.113 134.691 245.113 134.471V121.327C245.113 121.107 244.956 120.947 244.742 120.947H244.312C244.097 120.947 243.94 120.788 243.94 120.568V120.128C243.94 119.909 243.784 119.749 243.569 119.749H243.139C242.924 119.749 242.767 119.909 242.767 120.128ZM254.686 136.869V118.93C254.686 118.71 254.842 118.55 255.057 118.55H259.592C259.807 118.55 259.963 118.71 259.963 118.93V136.869C259.963 137.088 259.807 137.248 259.592 137.248H255.057C254.842 137.248 254.686 137.088 254.686 136.869ZM264.266 136.869V118.93C264.266 118.69 264.403 118.55 264.637 118.55H275.622C275.856 118.55 275.993 118.69 275.993 118.93V123.564C275.993 123.804 275.856 123.944 275.622 123.944H272.26C272.025 123.944 271.889 123.804 271.889 123.564V123.125C271.889 122.885 271.752 122.745 271.517 122.745H271.087C270.853 122.745 270.716 122.605 270.716 122.366V120.128C270.716 119.889 270.579 119.749 270.345 119.749H269.915C269.68 119.749 269.543 119.889 269.543 120.128V126.321C269.543 126.561 269.68 126.701 269.915 126.701H273.706C273.941 126.701 274.078 126.84 274.078 127.08V128.718C274.078 128.958 273.941 129.098 273.706 129.098H269.915C269.68 129.098 269.543 129.238 269.543 129.477V135.67C269.543 135.91 269.68 136.05 269.915 136.05H270.345C270.579 136.05 270.716 135.91 270.716 135.67V133.433C270.716 133.193 270.853 133.053 271.087 133.053H271.517C271.752 133.053 271.889 132.913 271.889 132.674V132.234C271.889 131.994 272.025 131.855 272.26 131.855H275.622C275.856 131.855 275.993 131.994 275.993 132.234V136.869C275.993 137.108 275.856 137.248 275.622 137.248H264.637C264.403 137.248 264.266 137.108 264.266 136.869Z"
            stroke="url(#paint12_linear_598_2683)" stroke-width="1.99898"
            shape-rendering="crispEdges" mask="url(#path-116-outside-1_598_2683)" />
    </g>
    <defs>
        <filter id="filter0_d_598_2683" x="78.4565" y="117.551" width="202.536" height="28.6968"
            filterUnits="userSpaceOnUse" color-interpolation-filters="sRGB">
            <feFlood flood-opacity="0" result="BackgroundImageFix" />
            <feColorMatrix in="SourceAlpha" type="matrix"
                values="0 0 0 0 0 0 0 0 0 0 0 0 0 0 0 0 0 0 127 0" result="hardAlpha" />
            <feOffset dy="4" />
            <feGaussianBlur stdDeviation="2" />
            <feComposite in2="hardAlpha" operator="out" />
            <feColorMatrix type="matrix" values="0 0 0 0 0 0 0 0 0 0 0 0 0 0 0 0 0 0 0.25 0" />
            <feBlend mode="normal" in2="BackgroundImageFix" result="effect1_dropShadow_598_2683" />
            <feBlend mode="normal" in="SourceGraphic" in2="effect1_dropShadow_598_2683"
                result="shape" />
        </filter>
        <linearGradient id="paint0_linear_598_2683" x1="137.15" y1="13.656" x2="137.15" y2="135.91"
            gradientUnits="userSpaceOnUse">
            <stop stop-color="#F0B339" />
            <stop offset="0.305" stop-color="#F07639" />
            <stop offset="0.635" stop-color="#F93636" />
            <stop offset="1" stop-color="#460B00" />
        </linearGradient>
        <linearGradient id="paint1_linear_598_2683" x1="137.15" y1="13.656" x2="137.15" y2="135.91"
            gradientUnits="userSpaceOnUse">
            <stop stop-color="#FFB623" />
            <stop offset="0.3" stop-color="#FF691D" />
            <stop offset="0.675" stop-color="#F52222" />
            <stop offset="1" stop-color="#460B00" />
        </linearGradient>
        <radialGradient id="paint2_radial_598_2683" cx="0" cy="0" r="1"
            gradientUnits="userSpaceOnUse"
            gradientTransform="translate(171.42 17.6717) rotate(144.526) scale(100.21 45.1481)">
            <stop stop-color="#F52222" />
            <stop offset="1" stop-color="#F81A64" />
        </radialGradient>
        <radialGradient id="paint3_radial_598_2683" cx="0" cy="0" r="1"
            gradientUnits="userSpaceOnUse"
            gradientTransform="translate(65.1113 237.783) rotate(-85.6469) scale(199.143 333.766)">
            <stop offset="0.5672" stop-color="#F52222" />
            <stop offset="0.6942" stop-color="#F52222" />
            <stop offset="1" stop-color="#F52222" stop-opacity="0" />
        </radialGradient>
        <radialGradient id="paint4_radial_598_2683" cx="0" cy="0" r="1"
            gradientUnits="userSpaceOnUse"
            gradientTransform="translate(55.5054 151.248) rotate(-24.8102) scale(129.142 134.314)">
            <stop stop-color="#FFB623" />
            <stop offset="1" stop-color="#FFB623" stop-opacity="0" />
        </radialGradient>
        <radialGradient id="paint5_radial_598_2683" cx="0" cy="0" r="1"
            gradientUnits="userSpaceOnUse"
            gradientTransform="translate(160.67 -10.6027) rotate(164.231) scale(155.772 34.7681)">
            <stop stop-color="#F81A64" />
            <stop offset="1" stop-color="#F81A64" stop-opacity="0" />
        </radialGradient>
        <linearGradient id="paint6_linear_598_2683" x1="260.074" y1="41.446" x2="260.074"
            y2="91.9845" gradientUnits="userSpaceOnUse">
            <stop stop-color="#FFB623" />
            <stop offset="0.26" stop-color="#FF691D" />
            <stop offset="0.57" stop-color="#F52222" />
            <stop offset="1" stop-color="#460B00" />
        </linearGradient>
        <linearGradient id="paint7_linear_598_2683" x1="260.074" y1="41.446" x2="260.074"
            y2="91.9845" gradientUnits="userSpaceOnUse">
            <stop stop-color="#FFB623" />
            <stop offset="0.26" stop-color="#FF691D" />
            <stop offset="0.57" stop-color="#F52222" />
            <stop offset="1" stop-color="#460B00" />
        </linearGradient>
        <radialGradient id="paint8_radial_598_2683" cx="0" cy="0" r="1"
            gradientUnits="userSpaceOnUse"
            gradientTransform="translate(294.202 60.1623) rotate(165.26) scale(61.7412 30.4115)">
            <stop stop-color="#F52222" />
            <stop offset="1" stop-color="#F81A64" />
        </radialGradient>
        <radialGradient id="paint9_radial_598_2683" cx="0" cy="0" r="1"
            gradientUnits="userSpaceOnUse"
            gradientTransform="translate(221.903 152.085) rotate(-84.5604) scale(81.2816 169.861)">
            <stop offset="0.5672" stop-color="#F52222" />
            <stop offset="0.6942" stop-color="#F52222" />
            <stop offset="1" stop-color="#F52222" stop-opacity="0" />
        </radialGradient>
        <radialGradient id="paint10_radial_598_2683" cx="0" cy="0" r="1"
            gradientUnits="userSpaceOnUse"
            gradientTransform="translate(217.006 116.823) rotate(-20.2816) scale(63.704 56.5592)">
            <stop stop-color="#FFB623" />
            <stop offset="1" stop-color="#FFB623" stop-opacity="0" />
        </radialGradient>
        <radialGradient id="paint11_radial_598_2683" cx="0" cy="0" r="1"
            gradientUnits="userSpaceOnUse"
            gradientTransform="translate(270.614 50.8696) rotate(167.28) scale(78.3393 14.3605)">
            <stop stop-color="#F81A64" />
            <stop offset="1" stop-color="#F81A64" stop-opacity="0" />
        </radialGradient>
        <linearGradient id="paint12_linear_598_2683" x1="179.583" y1="118.52" x2="179.583"
            y2="143.179" gradientUnits="userSpaceOnUse">
            <stop stop-color="white" stop-opacity="0" />
            <stop offset="1" stop-color="white" />
        </linearGradient>
    </defs>
</svg>